<?xml version="1.0" encoding="UTF-8"?>
<svg viewBox="0 0 455 750" xmlns="http://www.w3.org/2000/svg">
 <defs>
  <linearGradient id="c" x1="209.33" x2="343.19" y1="201.77" y2="239" gradientTransform="matrix(.87795 0 0 1.139 -161.63 -150.85)" gradientUnits="userSpaceOnUse">
   <stop stop-color="#fff" offset="0"/>
   <stop stop-color="#ffffd6" offset=".1"/>
   <stop stop-color="#ffffd0" offset=".1"/>
   <stop stop-color="#fff" offset=".1"/>
   <stop stop-color="#ffffb4" offset=".1"/>
   <stop stop-color="#ffffa1" offset="1"/>
  </linearGradient>
  <linearGradient id="b" x1="243.36" x2="317.81" y1="196.38" y2="212.09" gradientTransform="matrix(.84489 0 0 1.1836 -161.63 -150.85)" gradientUnits="userSpaceOnUse">
   <stop stop-color="#ffffb8" offset="0"/>
   <stop offset="1"/>
  </linearGradient>
  <linearGradient id="a" x1="163.22" x2="334.5" y1="246.55" y2="471.44" gradientTransform="matrix(1.665 0 0 .60061 -161.63 -150.85)" gradientUnits="userSpaceOnUse">
   <stop stop-color="#ffffc8" offset="0"/>
   <stop stop-color="#ffffe3" offset="0"/>
   <stop stop-color="#fff" offset=".75"/>
   <stop stop-color="#ffffd3" offset=".875"/>
   <stop stop-color="#fff" offset=".9375"/>
   <stop stop-color="#ffffd8" offset=".96875"/>
   <stop stop-color="#fff" offset=".98438"/>
   <stop stop-color="#fff" offset="1"/>
  </linearGradient>
 </defs>
 <g transform="translate(0 7.1834)" fill-rule="evenodd">
  <path d="m48.053 15.377s-16.569 11.998-18.283 21.711-14.855 75.987-3.428 84.557c-0.57133 7.4273 14.855 17.14 14.855 17.14l69.131-21.711 6.2846-73.702-47.992-13.141-20.568-14.855z" fill="url(#c)" stroke="#000" stroke-width="2"/>
  <path d="m192.33 433.6s12.732 14.642 6.3662 41.38-27.375 238.1-19.735 241.28 36.287 16.552 52.203 3.1831c7.0028-24.828 5.7296-226.64 7.6394-247.01 5.093-28.648 14.642-33.104 9.5493-46.473l-25.465 3.1831c-13.369-2.5465-18.462-14.642-26.101-10.822-3.8197 5.7296-4.4563 15.279-4.4563 15.279z" fill="#ffb840" stroke="#000"/>
  <path d="m180.24 714.98c1.9099 6.3662 48.383 15.915 51.566 3.1831 1.9098-10.823 7.0028-224.09 3.8197-238.73-6.3662-11.459-2.5465 224.73-28.011 223.45s-33.104 12.096-27.375 12.096z" opacity=".2988"/>
  <path d="m214.51 429.52s-14.431-14.533-17.317-12.457-6.4939 15.225 1.4431 22.146 2.8862 22.146 2.8862 22.146 7.2154 7.6126 11.545-0.69205 1.4431-31.143 1.4431-31.143z" fill="#fff" opacity=".2988"/>
  <path d="m258.3 27.946-194.82 69.131-16.569 17.14-4.5706 14.855 253.67-98.269-37.708-2.8566z" fill="#ffffc5" opacity=".53617"/>
  <path d="m63.479 41.658s-41.707 39.993-12.569 78.272 52.562-47.42 52.562-47.42l-39.993-30.852z" fill="url(#b)"/>
  <path d="m360.57 37.777-290.07 97.816 31.455 5.6947 308.72-96.303-50.106-7.2074z" fill="#ffffc3" opacity=".57021"/>
  <path d="m49.196 15.948s-6.856 13.141 0.57134 21.711 38.279 45.706-2.2853 75.987c-11.998 15.426-1.1427 25.71-1.1427 25.71 37.137 7.4273 189.11 19.425 316.52 19.425 42.85 9.1413 68.56-17.14 68.56-17.14s23.425-54.276 8.57-84.557c-28.567-23.996-39.993-18.854-62.846-22.282l-327.94-18.854z" fill="url(#a)" stroke="#000" stroke-width="2"/>
  <path d="m216.53 424.05 2.5465-63.662s3.8197-13.369-14.642-28.648-164.25-130.51-164.25-130.51-15.915-7.6394-14.642-42.653 8.9127-57.932 8.9127-57.932 9.5493-21.008 26.101-23.555-1.2732 10.186-1.2732 10.186-14.642 3.8197-19.099 27.375c-4.4563 19.099-6.3662 36.924-7.0028 50.293 1.9098 14.006 8.9127 25.465 19.099 33.104 5.093 8.276 154.7 123.5 154.7 123.5s26.738 22.918 23.555 47.11-1.9098 57.932-1.9098 57.932l-12.096-2.5465z" fill="#898a8e" stroke="#000"/>
  <path d="m218.44 422.14 2.5465-68.755 1.9098 2.5465-1.2732 66.208h-3.1831z" opacity=".44223"/>
  <path d="m37.636 198.05 171.89 131.78-1.9098 3.1831-169.98-134.96z" opacity=".47809"/>
  <path d="m208.88 333.96 1.3877-3.1718s8.7224 12.092 11.299 18.832-0.19823 5.7489-0.19823 5.7489l-1.3877-3.9647s-6.5418-14.471-11.101-17.445z" opacity=".20717"/>
  <path d="m66.507 80.037-5.2244 5.4732c-16.668 8.2098-18.161 21.644-18.161 21.644l-2.7366-0.24879s1.7415-17.415 26.122-26.868z" opacity=".31474"/>
  <path d="m53.551 81.547s-18.433 13.757-19.706 26.489c-5.5025 12.732-7.0028 52.451-7.0028 52.451-0.49757 0-0.02934 28.648 11.43 34.377-9.6872-20.89-8.1446-44.695-6.754-57.858 3.8784-20.627-0.53449-35.014 22.033-55.46z" fill="#fff" opacity=".49801"/>
  <path d="m206.52 479.49s-23.346 190.36-19.754 204.73 19.754-3.5917 19.754-3.5917l7.1834-174.2s-1.7958-26.938-7.1834-26.938z" fill="#ffffcd" opacity=".42128"/>
 </g>
</svg>
