<?xml version='1.0' encoding='utf-8'?>
<svg xmlns="http://www.w3.org/2000/svg" viewBox="0 0 3003 3003"> <path transform="scale(2.9326)" d="m-0-0h1024v1024h-1024v-1024z" fill="#FEFEFE"/> <path transform="scale(2.9326)" d="m659.49 132.25c0.943-0.148 1.351-0.042 2.26 0.177 1.717 1.955 1.591 6.97 1.95 9.692 2.926-0.054 6.522-0.491 9.093 1.087 0.368 1.494 0.41 1.482-0.262 2.857-2.58 1.491-6.122 0.956-9.033 0.916 0.013 2.581 0.309 6.216-0.899 8.502-0.84 1.588-1.148 1.613-2.849 2.152l-1.5-1.258c-0.916-2.802-0.687-6.065-0.766-8.997l-6.984-0.222c-1.597-0.165-2.465-0.67-3.503-1.906l0.197-1.5c2.552-2.327 6.795-1.514 10.116-1.453 0.064-3.173-0.23-7.628 2.18-10.047z" fill="#F8BC45"/> <path transform="scale(2.9326)" d="m78.745 318.75c1.7687-0.093 1.7856-0.025 3.2453 1 1.4557 2.432 1.247 5.563 1.4002 8.335 2.2012-0.03 4.7053-0.174 6.8595 0.338 1.5096 0.359 1.8895 1.106 2.7428 2.327-0.0491 1.17 0.1996 1.735-0.6215 2.642-2.0422 2.257-6.5742 1.688-9.3624 1.73l0.0228 7.628c-0.6646 1.409-1.447 1.79-2.7472 2.5-1.4034-0.113-1.7026-0.363-2.8928-1.155-1.4939-2.458-0.9315-6.196-0.9097-9.013l-6.982-0.088c-1.7758-0.237-2.3258-0.906-3.4021-2.244-0.0272-1.815-0.3158-2.404 0.8397-3.859 2.6724-1.45 6.3203-0.904 9.2993-0.858l0.1619-3.922c0.161-2.502 0.489-3.712 2.3462-5.361z" fill="#F6A622"/> <path transform="scale(2.9326)" d="m909.32 304.11c-1.054-0.277-2.05-0.555-3.04-1.019-4.462-2.088-7.468-5.801-9.062-10.42-1.568-4.542-0.91-9.241 1.351-13.425 2.183-4.039 5.818-7.056 10.287-8.233l0.639-0.156c2.279-0.568 4.49-0.423 6.814-0.337 5.009 1.056 9.265 3.138 12.194 7.476 2.579 3.82 3.709 8.19 2.702 12.72-1.073 4.823-4.022 8.987-8.319 11.45-1.493 0.855-2.996 1.39-4.641 1.859l-0.576 0.17c-2.364 0.643-5.98 0.559-8.349-0.085z" fill="#F6A622"/> <path transform="scale(2.9326)" d="m921.82 299.82c-2.125 0.885-4.265 1.752-6.567 2.035-3.853 0.474-7.759-0.601-10.735-3.114-3.146-2.656-5.198-6.676-5.396-10.801-0.185-3.864 1.328-7.952 4.072-10.706 3.869-3.884 8.099-4.208 13.233-4.29 4.817 1.552 8.36 3.835 10.675 8.492 1.577 3.169 2.17 6.929 0.825 10.316-0.714 1.799-1.726 3.669-3.019 5.123-0.609 0.684-2.857 2.281-3.088 2.945z" fill="#FEFEFE"/> <path transform="scale(2.9326)" d="m316.27 115.59c2.228-0.079 4.766-0.368 6.933 0.222l0.551 0.166 2.75 0.956c4.62 2.085 8.185 5.857 9.789 10.705 1.487 4.497 0.986 9.819-1.141 14.027-2.591 5.126-7.319 7.796-12.589 9.379-3.542 0.51-6.527 0.35-9.809-1.21-4.647-2.207-8.637-5.976-10.339-10.888-1.447-4.177-1.262-9.228 0.727-13.206 2.863-5.727 7.333-8.189 13.128-10.151z" fill="#F6A622"/> <path transform="scale(2.9326)" d="m317.88 118.13c3.297 0.01 6.292 0.567 9.176 2.231 3.584 2.069 6.505 5.895 7.36 9.956 0.804 3.821-0.012 7.578-2.171 10.799-2.898 4.324-6.717 6.227-11.625 7.295-3.251 0.153-6.324-0.797-9.077-2.499-3.453-2.135-6.083-5.815-7.002-9.759-0.832-3.568-0.13-7.344 1.785-10.429 2.687-4.328 6.719-6.515 11.554-7.594z" fill="#FEFEFE"/> <path transform="scale(2.9326)" d="m705.93 362.75c-2.701-6.359-4.278-12.274-3.585-19.302 0.18-1.823 0.828-3.781 2.355-4.935 1.667-1.26 3.553-1.398 5.554-0.974 2.655 0.562 5.035 2.909 6.958 4.716 2.925-2.388 5.587-4.627 9.623-4.128 3.054 0.378 5.299 1.583 7.093 4.126 1.543 2.187 1.754 4.443 2.027 7l0.181 1.68c4.656-0.713 10.024-1.859 14.101 1.265 1.706 1.306 2.916 3.26 3.176 5.408 0.289 2.389-0.599 5.632-1.636 7.767 1.754 4.381 3.606 8.207 1.808 12.94-0.88 2.317-3.201 3.972-4.333 6.196-1.329 2.61-1.353 5.979-3.037 8.349-2.115 2.975-5.846 5.023-7.546 8.238-0.097-2.32-0.392-4.767 0.085-7.051l3.369-1.93c0.661-1.048 0.863-1.971 0.846-3.199-0.018-1.392-0.578-2.771-1.612-3.717-1.345-1.229-2.682-1.566-4.451-1.446-2.133 1.112-3.352 2.657-4.843 4.473-0.664-3.253-2.036-8.171-0.68-11.37 1.085-2.561 2.295-4.233 2.612-7.103-0.446-1.413-0.792-2.471-1.926-3.487-7e-3 -7e-3 -0.739-0.643-0.815-0.675-1.942-0.82-7.087 0.383-9.25 0.618l-10.577 0.644c-2.325-1.111-3.999-1.882-5.497-4.103z" fill="#11335B"/> <path transform="scale(2.9326)" d="m705.93 362.75c1.498 2.221 3.172 2.992 5.497 4.103l10.577-0.644c2.163-0.235 7.308-1.438 9.25-0.618 0.076 0.032 0.808 0.668 0.815 0.675 1.134 1.016 1.48 2.074 1.926 3.487-0.317 2.87-1.527 4.542-2.612 7.103-1.356 3.199 0.016 8.117 0.68 11.37 1.491-1.816 2.71-3.361 4.843-4.473 1.769-0.12 3.106 0.217 4.451 1.446 1.034 0.946 1.594 2.325 1.612 3.717 0.017 1.228-0.185 2.151-0.846 3.199l-3.369 1.93c-0.477 2.284-0.182 4.731-0.085 7.051l-0.041 0.438c-0.132 1.039-0.058 0.48-0.391 1.629-0.544 1.875-0.037 4.378 0.143 6.302l1.16 13.442-1.095-0.036-0.474 0.448c-3.376 3.117-7.247 5.694-10.96 8.389-1.782 1.293-3.728 3.071-5.779 3.867l-7.379-11.917c-0.93-0.17-1.79-0.302-2.736-0.312 0.964-0.226 1.837-0.455 2.746-0.851l0.648-7.628c-0.855-1.502-1.263-3.228-1.755-4.876l-4.502 0.62c-1.856-0.937-3.419-2.139-4.315-4.066-3.784-8.14-3.482-15.228-2.524-23.792 0.797-7.12 1.938-13.287 4.515-20.003z" fill="#F9BFA0"/> <path transform="scale(2.9326)" d="m712.75 409.99 0.607-2e-3c7.329-0.082 14.421-2.282 21.371-4.393-5.802 4.497-13.169 7.334-20.223 9.271-0.855-1.502-1.263-3.228-1.755-4.876z" fill="#FEB386"/> <path transform="scale(2.9326)" d="m62.537 502.66 0.82-0.053c2.2678-0.184 4.4469-1.336 6.6247-1.963 0.7578-0.218 2.3862-0.818 3.1696-0.8 4.3553 0.101 10.955 5.142 14.177 7.759 2.3828 1.935 6.241 5.07 7.8782 7.629l11.217 12.284c1.953 2.335 3.909 5.838 6.206 7.715 0.763 0.878 1.397 1.742 2.041 2.71l18.002 24.116-10.154 11.656-1.566 0.887c-5.824-5.789-12.181-10.915-18.397-16.267l-23.57-20.566-11.904-10.306c-2.8679-2.496-6.5064-5.318-7.8444-9.006-2.1576-5.946 0.7249-10.639 3.3003-15.795z" fill="#089899"/> <path transform="scale(2.9326)" d="m463.96 180.46c-0.218-10.045-1.892-21.233 5.618-29.214 4.163-4.424 10.319-7.206 16.399-7.283 6.599-0.084 12.186 2.087 16.858 6.884 7.817 8.028 6.146 19.405 6.13 29.66 0.092 8.074-0.263 15.922-6.012 22.231-3.954 4.338-9.3 7.068-15.223 7.213-6.757 0.166-12.888-2.285-17.66-7.067-6.563-6.575-6.085-13.892-6.11-22.424z" fill="#D9661F"/> <path transform="scale(2.9326)" d="m485.53 156.61c2.839 0.519 5.796 0.908 7.968 2.982 4.39 4.193 2.944 13.826 2.929 19.401l-8.382 7e-3 -11.223 0.076c0.016-4.388-0.981-13.201 0.981-16.986 1.627-3.137 4.44-4.611 7.727-5.48z" fill="#FEFEFE"/> <path transform="scale(2.9326)" d="m151.84 393.98c-2.401-1.885-3.533-4.717-5.049-7.285-3.684-6.238-7.169-11.641-8.275-19.005-0.614-4.093-0.157-7.849 2.449-11.193 1.768-2.268 3.614-2.782 6.376-3.147 0.212-0.028 0.494 0.081 0.637-0.078 0.13-0.145 0.559-1.872 0.66-2.2 1.054-3.404 2.347-6.757 5.422-8.864 5.151-3.53 13.73-0.789 19.419-0.01 4.412 0.604 10.399 0.113 13.965-2.799 2.902-2.368 2.858-5.02 3.154-8.457 2.746 2.486 4.814 4.926 6.402 8.278 2.092 4.417 1.843 9.184 0.083 13.668-2.051 5.224-7.028 8.518-12.04 10.518l-0.662 0.257c1.673 2.215 2.898 3.881 3.679 6.584l0.223 0.701c1.844 5.955 3.97 18.624 0.727 24.276-1.277 2.226-4.012 4.073-6.264 5.269-1.817 0.964-4.531 1.351-5.077 3.407l-0.235 6.124c-1.843 0.782-4.596 0.374-6.586 0.317-4.038-0.117-8.535 0.13-12.49-0.672l-0.88-2.548c0.059-2.283-0.605-4.807-1.097-7.034-1.414-2.067-2.748-4.349-4.541-6.107z" fill="#052145"/> <path transform="scale(2.9326)" d="m151.84 393.98c0.483-0.992 0.869-1.767 1.633-2.578 1.037-1.101 1.961-1.854 2.23-3.408 0.322-1.858 0.697-3.506-0.457-5.017l-3-0.016c-0.761-0.395-1.352-0.729-1.915-1.392-1.443-1.7-2.517-4.191-2.246-6.449 0.204-1.702 0.956-3.08 2.417-4.014 0.914-0.584 1.962-0.685 2.971-0.336 1.593 0.551 2.749 2.015 3.443 3.484l1.152 2.151 1.428 0.038c0.916-0.494 1.861-1.002 2.57-1.779 2.555-2.796 1.296-4.169 1.387-7.417 0.029-1.037 0.645-2.317 1.373-3.04 0.601-0.598 2.604-0.087 3.42 0.011 5.073 0.609 10.298 0.647 15.321-0.383l0.814-0.172c1.673 2.215 2.898 3.881 3.679 6.584l0.223 0.701c1.844 5.955 3.97 18.624 0.727 24.276-1.277 2.226-4.012 4.073-6.264 5.269-1.817 0.964-4.531 1.351-5.077 3.407l-0.235 6.124c-1.843 0.782-4.596 0.374-6.586 0.317-4.038-0.117-8.535 0.13-12.49-0.672l-0.88-2.548c0.059-2.283-0.605-4.807-1.097-7.034-1.414-2.067-2.748-4.349-4.541-6.107z" fill="#F9BFA0"/> <path transform="scale(2.9326)" d="m175.02 385.25c2.507-0.311 3.695 1.766 6.476 1.287l0.752-0.144 0.295 0.857-1.124 1.5-1.263 1c-0.806 0.171-1.582 0.381-2.405 0.148-1.567-0.442-2.632-1.757-3.315-3.148l0.584-1.5z" fill="#FEFEFE"/> <path transform="scale(2.9326)" d="m156.38 400.09 0.534 0.114c0.883 0.274 1.398 0.686 2.146 1.198 5.061 3.465 12.138 3.814 18.016 2.63l0.592-0.129-0.235 6.124c-1.843 0.782-4.596 0.374-6.586 0.317-4.038-0.117-8.535 0.13-12.49-0.672l-0.88-2.548c0.059-2.283-0.605-4.807-1.097-7.034z" fill="#D9661F"/> <path transform="scale(2.9326)" d="m211.18 433.55 22.464 33.025 7.043 10.572c1.094 1.616 2.145 3.603 3.603 4.874l57.587-23.03 10.168 11.808-34.123 23.293c-10.399 6.873-21.284 14.356-33.168 18.432l-0.833 0.291c-4.863 1.608-9.428 0.69-13.858-1.676-5.414-2.891-9.631-7.42-13.888-11.754l-0.057-0.566-1.278-20.979-2.734-28.357c-0.497-5.008-1.843-10.97-0.926-15.933z" fill="#089899"/> <path transform="scale(2.9326)" d="m245.03 484.75 0.582-0.017c0.596 1.321 0.256 3.222 0.184 4.663-0.223 4.504-0.522 8.909-1.344 13.354l-1.205 0.677-1.166-1.177c-0.371-5.935 1.533-11.786 2.949-17.5z" fill="#077375"/> <path transform="scale(2.9326)" d="m120.95 574.6 1.566-0.887c4.095 3.519 7.479 7.877 11.718 11.152-5.472 9.159-4.256 63.664-4.244 76.616l0.161 28.209c0.228 8.846 0.967 18.457 0.097 27.235-0.761 7.672-3.411 15.835-5.107 23.405l-5.31 27.889-9.48 65.893 17.222-0.083c2.293-0.019 5.681 0.31 7.775-0.529 1.485 0.11 2.848 0.04 4.065 1.009 1.078 4.336-0.641 10.547-1.42 14.901l-10.409 0.052-19.918-0.041-8.0646 0.075c-1.5028-0.046-3.5921 0.153-4.8534-0.688-0.7769-4.112 0.4483-9.608 1.0813-13.742 1.2593-1.108 3.5904-1.269 5.2267-1.627 2.58-26.193 4.855-52.442 9.587-78.363l5.608-26.511c1.012-3.938 3.35-8.848 3.661-12.819 0.21-2.693-0.382-5.676-0.549-8.394l-0.962-19.188 0.066-80.918 1.067-19.803c0.283-4.212 0.363-8.746 1.416-12.843z" fill="#052145"/> <path transform="scale(2.9326)" d="m928.24 492.9c4.931-3.152 9.883-7.292 13.203-12.15l2.974-4.26 0.297 0.538c2.109 3.733 4.907 6.61 7.516 9.945l10.034 13.329c2.165 2.853 5.131 6.348 6.274 9.729 0.677 2.002 0.427 3.823-0.114 5.823-1.394 5.146-4.217 9.519-7.254 13.816-11.305 15.992-28.542 29.33-45.556 38.711-2.193 1.21-6.051 2.457-7.697 4.12-4.341-1.63-9.971-2.593-14.554-3.543-3.476-0.72-10.055-0.886-12.248-3.958 0.731-1.344 1.518-0.572 2.165-1.75l-4.035-0.361c-1.497-0.342-2.516-0.571-3.289-1.889 0.723-0.61 1.265-0.758 2.168-0.942 0.836-0.171 1-0.158 1.697-0.701-2.133-0.283-3.795-0.341-5.385-1.857l0.617-0.86c2.251-0.893 4.046-1.209 6.429-1.26l0.763-0.013v-0.472c-2.021-0.377-4.72-0.747-6.041-2.452 0.951-0.857 2.516-0.971 3.76-1.246 5.367-1.189 11.088-1.05 16.57-1.245-2.613-4.109-4.392-8.97-7.309-12.822-0.592-0.656-1.106-1.367-1.48-2.171-0.988-2.122-0.563-5.186-0.332-7.455 1.222-11.999 5.889-24.475 10.379-35.621l3.529-9.346 11.212 11.446c1.619 1.639 3.128 3.76 5.063 5.003 1.613-1.04 3.306-2.391 5.119-3.007 1.816-1.07 3.798-1.883 5.525-3.079z" fill="#F9BFA0"/> <path transform="scale(2.9326)" d="m928.24 492.9 19.713 21.85-0.208 1.098-1.296 0.721c-8.702-5.795-16.176-13.412-23.734-20.59 1.816-1.07 3.798-1.883 5.525-3.079z" fill="#F98662"/> <path transform="scale(2.9326)" d="m901.33 482.54 11.212 11.446c1.619 1.639 3.128 3.76 5.063 5.003 1.613-1.04 3.306-2.391 5.119-3.007 7.558 7.178 15.032 14.795 23.734 20.59l-0.406 0.326c-5.47 4.511-10.01 10.93-14.659 16.32-7.912 9.175-16.163 18.197-23.503 27.837l-7.666-8.15c-1.107-1.122-2.141-2.457-3.681-2.95-2.613-4.109-4.392-8.97-7.309-12.822-0.592-0.656-1.106-1.367-1.48-2.171-0.988-2.122-0.563-5.186-0.332-7.455 1.222-11.999 5.889-24.475 10.379-35.621l3.529-9.346z" fill="#FEFEFE"/> <path transform="scale(2.9326)" d="m319.38 451.31 0.054-159.24-0.019-48.181c-1e-3 -6.386-0.83-13.88 0.076-20.139 0.213-1.467 1.204-2.807 2.259-3.82 0.907-0.872 1.997-1.361 3.25-1.451 9.831-0.705 20.221 0.038 30.123 0.043l64.018-0.031-0.096 21.853-78.699-0.177 0.117 212.21 1.118 0.682c-0.144 1.945-0.075 3.735 0.135 5.673l0.947 0.795-2.21 1.883c-6.833 2.99-14.174 3.484-21.082 6.021-2.48 0.198-5.424 1.767-7.33 3.366l-10.168-11.808c2.655-1.797 6.118-2.954 9.082-4.209 2.853-1.209 5.413-2.622 8.425-3.475z" fill="#4669A4"/> <path transform="scale(2.9326)" d="m319.38 451.31 0.707-0.207c1.631-0.49 3.259-0.968 4.718-1.871 3.477-2.153 6.769-5.877 11.198-4.98 1.117 1.354 1.295 1.957 0.978 3.75l-0.816 2.413c1.309 1.086 2.711 1.461 4.298 1.967l1.118 0.682c-0.144 1.945-0.075 3.735 0.135 5.673l0.947 0.795-2.21 1.883c-6.833 2.99-14.174 3.484-21.082 6.021-2.48 0.198-5.424 1.767-7.33 3.366l-10.168-11.808c2.655-1.797 6.118-2.954 9.082-4.209 2.853-1.209 5.413-2.622 8.425-3.475z" fill="#F9BFA0"/> <path transform="scale(2.9326)" d="m835.72 386.87-0.222-0.891-0.485-0.384c-1.43-1.156-2.259-1.927-3.002-3.594l-0.403-0.895c-1.904-4.265-2.581-7.326-0.808-11.837 0.67-1.703 1.561-2.811 2.99-3.918 1.936-1.501 2.903-3.767 4.402-5.659 6.134-7.741 15.443-10.7 25.061-9.665 6.518 0.701 11.797 3.308 17.275 6.74 4.344-3.566 9.131-7.326 15.16-6.699 5.359 0.558 10.096 4.273 13.311 8.433 2.143 2.774 3.569 6.087 5.173 9.188 4.884-1.395 10.141-2.658 14.903-0.093 3.101 1.671 6.307 5.035 7.252 8.499 0.859 3.146-0.038 6.539-0.971 9.549 7.198 1.387 13.051 2.842 17.355 9.424 2.296 3.512 2.927 8.007 1.966 12.059-0.974 4.108-3.315 7.742-5.79 11.099l0.656 0.424c3.857 2.52 7.159 5.548 8.19 10.272 0.861 3.943 0.313 8.591-1.973 11.942-1.983 2.906-4.605 4.832-8.089 5.449l-4.683 0.7-0.205 0.567c-2.011 5.406-5.577 8.248-10.75 10.544l-0.555 0.241-10.519-10.514c-4.893-4.767-10.048-9.175-15.418-13.397-3.079-2.421-6.237-5.079-9.971-6.411-3.33-1.188-6.645-1.101-10.123-1.058-3.495 0.056-7.807-0.335-11.173 0.458l-1.734 0.101c-1.936-2.023-1.767-13.366-1.98-16.671 0.314-0.685 0.756-1.251 1.188-1.865l-1.257-3.691c-0.594 1.636-3.3 4.024-4.928 4.726-3.59 1.547-8.01 1.904-11.815 2.732l-0.445 2.13-0.031-8e-3c-0.11-0.824-0.213-1.223-0.524-1.96-3.559-0.26-6.887-0.711-10.309-1.754-3.707-4.729-5.324-9.056-6.089-14.996 0.072-3.303 0.067-6.066-0.63-9.317z" fill="#052145"/> <path transform="scale(2.9326)" d="m876.81 398.18 0.694-3.431c1.528-1.686 2.589-2.773 4.988-2.912 1.173-0.067 1.259 0.075 2.255 0.536 1.213 1.413 1.617 2.739 1.548 4.626-0.052 1.455-0.594 3.26-1.722 4.25-1.35 1.185-3.927 1.275-5.657 1.452l-0.485 0.38-0.451-0.112-0.359-1.447-0.811-3.342z" fill="#F7CEB5"/> <path transform="scale(2.9326)" d="m836.12 380.46c-0.182-4.315 0.389-7.103 2.111-10.998 2.678 0.752 6.737 1.37 9.083 2.656 0.921 0.505 2.754 3.552 3.509 4.527-1.387 3.203-3.228 5.716-4.354 9.103l0.776 1.5c-0.493 0.563-0.803 0.788-1.426 1.17l-0.634-0.118c-1.463-0.154-2.904 0.399-4.301 0.779l-0.224 1.242-0.885-1.047-1.013-1.461-1.512-0.758c-1.411-1.093-1.037-4.888-1.13-6.595z" fill="#F7CEB5"/> <path transform="scale(2.9326)" d="m836.12 380.46c1.251 0.469 3.165 0.126 3.625 1.038l0.252 1.002 1.248 1.248-0.99 1.25 0.124 0.438c0.19 0.75 0.158 1.404 0.133 2.164-0.029 0.841-0.028 0.522 0.372 1.479l-0.224 1.242-0.885-1.047-1.013-1.461-1.512-0.758c-1.411-1.093-1.037-4.888-1.13-6.595z" fill="#FEB386"/> <path transform="scale(2.9326)" d="m872.54 400.04 4.273-1.863 0.811 3.342 0.359 1.447 0.451 0.112 7.015 23.902c-3.495 0.056-7.807-0.335-11.173 0.458l-1.734 0.101c-1.936-2.023-1.767-13.366-1.98-16.671 0.314-0.685 0.756-1.251 1.188-1.865l-1.257-3.691 1.085-1.728 1.062-0.201c0.103-1.102-0.036-2.239-0.1-3.343z" fill="#FEFEFE"/> <path transform="scale(2.9326)" d="m872.54 400.04 4.273-1.863 0.811 3.342 0.359 1.447c-1.292 1.953-2.602 2.21-4.233 3.625-0.805 0.698-1.168 1.786-2 2.412l-1.257-3.691 1.085-1.728 1.062-0.201c0.103-1.102-0.036-2.239-0.1-3.343z" fill="#052145"/> <path transform="scale(2.9326)" d="m872.54 400.04 4.273-1.863 0.811 3.342-4.984 1.864c0.103-1.102-0.036-2.239-0.1-3.343z" fill="#F7CEB5"/> <path transform="scale(2.9326)" d="m850.82 376.65 0.401 0.421c2.727 2.821 6.835 4.684 8.628 8.269 0.261 0.522 0.522 0.762 0.999 1.089l0.434-2.176 0.305 0.681c1.142 2.514 2.514 4.307 4.361 6.339 2.233 0.719 5.328 1.289 7.196 2.683l-0.607 6.091c0.064 1.104 0.203 2.241 0.1 3.343l-1.062 0.201-1.085 1.728c-0.594 1.636-3.3 4.024-4.928 4.726-3.59 1.547-8.01 1.904-11.815 2.732l-0.445 2.13-0.031-8e-3c-0.11-0.824-0.213-1.223-0.524-1.96-3.559-0.26-6.887-0.711-10.309-1.754-3.707-4.729-5.324-9.056-6.089-14.996 0.072-3.303 0.067-6.066-0.63-9.317l2.058 1.381c-0.445 1.1-0.606 0.872-0.112 2.063 1.055-0.229 1.284-0.399 2.107-1.037l0.885 1.047 0.224-1.242c1.397-0.38 2.838-0.933 4.301-0.779l0.634 0.118c0.623-0.382 0.933-0.607 1.426-1.17l-0.776-1.5c1.126-3.387 2.967-5.9 4.354-9.103z" fill="#F9BFA0"/> <path transform="scale(2.9326)" d="m835.72 386.87 2.058 1.381c-0.445 1.1-0.606 0.872-0.112 2.063 1.055-0.229 1.284-0.399 2.107-1.037l0.885 1.047 0.607 0.427c0.732 0.484 1.06 0.403 1.736 0.734l0.819 0.516c0.199 1.362 0.08 2.547-0.072 3.899-2.393 1.397-3.34 1.368-6.105 0.643l-1.293-0.356c0.072-3.303 0.067-6.066-0.63-9.317z" fill="#F7CEB5"/> <path transform="scale(2.9326)" d="m463.96 180.46c0.025 8.532-0.453 15.849 6.11 22.424 4.772 4.782 10.903 7.233 17.66 7.067 5.923-0.145 11.269-2.875 15.223-7.213 5.749-6.309 6.104-14.157 6.012-22.231l47.02 0.067 0.126 37.953 0.209 22.124 0.08 16.711-137.39-0.277 0.032-16.745 0.096-21.853-0.13-37.967 44.953-0.06z" fill="#F6A622"/> <path transform="scale(2.9326)" d="m853.27 414.9 0.031 8e-3 0.445-2.13c3.805-0.828 8.225-1.185 11.815-2.732 1.628-0.702 4.334-3.09 4.928-4.726l1.257 3.691c-0.432 0.614-0.874 1.18-1.188 1.865 0.213 3.305 0.044 14.648 1.98 16.671l1.734-0.101c3.366-0.793 7.678-0.402 11.173-0.458 3.478-0.043 6.793-0.13 10.123 1.058 3.734 1.332 6.892 3.99 9.971 6.411 5.37 4.222 10.525 8.63 15.418 13.397l10.519 10.514c2.228 2.436 13.661 14.517 13.342 17.072-0.038 0.301-0.272 0.771-0.4 1.054l-2.974 4.26c-3.32 4.858-8.272 8.998-13.203 12.15-1.727 1.196-3.709 2.009-5.525 3.079-1.813 0.616-3.506 1.967-5.119 3.007-1.935-1.243-3.444-3.364-5.063-5.003l-11.212-11.446-3.529 9.346c-4.49 11.146-9.157 23.622-10.379 35.621-0.231 2.269-0.656 5.333 0.332 7.455 0.374 0.804 0.888 1.515 1.48 2.171l-51.673-0.153-8.641-0.184c0.885-3.165 0.689-6.757 0.669-10.028-0.07-12.064-2.197-24.895-7.222-35.926l-11.654 11.016c-2.844-6.108-5.304-13.763-7.097-20.235l-5.81-13.221c3.855-5.187 8.279-9.99 12.473-14.907 5.537-6.49 11.458-14.403 18.849-18.801 4.395-2.615 9.668-3.778 14.551-5.189l5.917-1.891c0.448-0.193 0.659-0.258 1.083-0.583 2.552-1.956 1.782-6.173 2.082-9.052l0.517-3.08z" fill="#F98662"/> <path transform="scale(2.9326)" d="m872.54 427.54 1.734-0.101c1.902 0.054 3.833 0.018 5.714 0.308-0.042 3.052-1.544 4.966-3.623 7.117-5.113 5.289-13.019 7.311-20.164 7.235-3.53-0.038-7.823-0.57-10.472-3.15-0.391-0.381-0.675-0.803-0.981-1.251l-0.331-0.478c-1.483-2.293-1.191-5.152-0.744-7.721l5.917-1.891c0.465 0.516 0.325 0.286 0.595 0.824 1.126 2.241 2.221 4.558 3.88 6.454 3.6 1.117 9.906 0.118 13.276-1.565 2.433-1.215 4.265-3.257 5.199-5.781z" fill="#E8403C"/> <path transform="scale(2.9326)" d="m853.27 414.9 0.031 8e-3 0.445-2.13c3.805-0.828 8.225-1.185 11.815-2.732 1.628-0.702 4.334-3.09 4.928-4.726l1.257 3.691c-0.432 0.614-0.874 1.18-1.188 1.865 0.213 3.305 0.044 14.648 1.98 16.671-0.934 2.524-2.766 4.566-5.199 5.781-3.37 1.683-9.676 2.682-13.276 1.565-1.659-1.896-2.754-4.213-3.88-6.454-0.27-0.538-0.13-0.308-0.595-0.824 0.448-0.193 0.659-0.258 1.083-0.583 2.552-1.956 1.782-6.173 2.082-9.052l0.517-3.08z" fill="#F9BFA0"/> <path transform="scale(2.9326)" d="m853.27 414.9 0.031 8e-3 0.445-2.13c3.805-0.828 8.225-1.185 11.815-2.732 1.628-0.702 4.334-3.09 4.928-4.726l1.257 3.691c-0.432 0.614-0.874 1.18-1.188 1.865-3.426 4.012-6.128 5.715-10.887 8.045-1.452 0.712-3.293 1.725-4.925 1.907-0.797 0.088-0.908 0.052-1.62-2e-3l-0.373-2.846 0.517-3.08z" fill="#F98662"/> <path transform="scale(2.9326)" d="m897.8 491.88-3.959 1.371c-2.976 0.849-5.54-0.061-8.118-1.544-3.484-2.004-6.2-5.239-7.211-9.167-0.909-3.535-0.072-6.704 1.785-9.775 1.923-3.178 4.799-6.129 8.456-7.11 3.285 0.247 8.301 5.91 10.5 8.334 2.79 3.076 2.213 4.582 2.076 8.545l-3.529 9.346z" fill="#E8403C"/> <path transform="scale(2.9326)" d="m803.61 481.62 1.346-0.179c5.147-7.159 25.819-43.394 32.333-45.835-4.477 8.95-9.718 17.283-13.837 26.475-2.071 4.621-4.34 10.064-4.471 15.167-0.088 3.432 1.072 7.074 2.155 10.312 0.191 0.571 0.856 3.024 1.225 3.279l-11.654 11.016c-2.844-6.108-5.304-13.763-7.097-20.235z" fill="#E8403C"/> <path transform="scale(2.9326)" d="m184.63 143.7c3.934-0.748 9.121-0.233 13.12 0.302 11.482 1.534 22.071 4.907 31.703 11.501 15.236 10.43 27.027 26.607 30.306 44.982 2.542 14.243 1.837 29.344-3.878 42.785-2.865 6.736-6.726 12.606-10.885 18.579l7.956 27.688-21.84-7.409c-1.542-0.558-4.932-2.526-6.394-2.611-0.174-0.01-0.294 0.188-0.442 0.28-5.211 3.267-10.699 5.459-16.511 7.404l-10.515 2.184c-18.903 2.157-38.836-3.263-53.697-15.228-14.663-11.807-25.347-29.806-27.272-48.716-2.034-19.979 3.907-40.331 16.806-55.748 13.46-16.086 30.89-24.168 51.543-25.993z" fill="#F6A622"/> <path transform="scale(2.9326)" d="m184.5 172.61 6.55-0.154-0.048 7.987c8.029 0.241 15.347 1.993 22.469 5.761l-6.356 12.603c-5.597-2.767-11.14-5.632-17.314-6.837-1.165 3.914-0.359 10.186-0.384 14.386 8 1.165 17.869 4.024 22.834 10.853 2.933 4.035 4.066 9.389 3.167 14.295-1.749 9.547-10.162 15.154-18.898 17.603-2.021 0.567-4.743 0.451-6.448 1.647l-0.065 4-0.133 2c-1.467 1.008-4.121 0.454-5.843 0.346l0.011-6.809c-8.893-1.153-15.443-2.798-23.274-7.359l5.176-13.263c6.156 3.449 12.205 5.486 19.058 7.102 3e-3 -1.252 0.216-14.972 0.031-15.18-0.182-0.205-2.183-0.603-2.672-0.744-6.868-1.982-14.335-4.9-17.975-11.524-2.184-3.975-2.571-9.243-1.207-13.554l0.257-0.765c0.523-1.603 1.12-2.952 2.071-4.36 4.491-6.644 11.483-8.679 18.954-10.193l0.039-7.841z" fill="#FEFEFE"/> <path transform="scale(2.9326)" d="m184.03 193.75c0.802 0.027 0.327-0.058 1.361 0.5-3e-3 2.434 0.677 8.77-0.566 10.544l-2.678-0.983c-1.232-0.999-1.84-1.675-2.61-3.061-0.112-1.795-0.214-3.076 0.503-4.75 1.228-1.312 2.305-1.687 3.99-2.25z" fill="#F6A622"/> <path transform="scale(2.9326)" d="m189.08 222.15c2.651 0.919 6.287 1.835 8.496 3.601 0.986 0.788 1.843 1.609 1.955 2.88 0.218 2.48-1.493 3.983-3.039 5.672-2.388 1.546-4.62 2.144-7.409 2.577l-3e-3 -14.73z" fill="#F6A622"/> <path transform="scale(2.9326)" d="m828.92 536.79 8.641 0.184 51.673 0.153c2.917 3.852 4.696 8.713 7.309 12.822-5.482 0.195-11.203 0.056-16.57 1.245-1.244 0.275-2.809 0.389-3.76 1.246 1.321 1.705 4.02 2.075 6.041 2.452v0.472l-0.763 0.013c-2.383 0.051-4.178 0.367-6.429 1.26l-0.617 0.86c1.59 1.516 3.252 1.574 5.385 1.857-0.697 0.543-0.861 0.53-1.697 0.701-0.903 0.184-1.445 0.332-2.168 0.942 0.773 1.318 1.792 1.547 3.289 1.889l4.035 0.361c-0.647 1.178-1.434 0.406-2.165 1.75 2.193 3.072 8.772 3.238 12.248 3.958 4.583 0.95 10.213 1.913 14.554 3.543 5.198 14.767 6.914 30.68 8.514 46.168 2.845 27.546 3.835 55.449 3.5 83.137l-23.863 6.75-17.513 3.202-21.044 2.352-1.57-0.431c-2.906 0.363-6.289-0.036-9.24-0.229-9.257-0.608-18.022-2.366-26.8-5.301l-13.809-6.189c-1.227-9.009-1.044-18.693-1.126-27.792-0.37-40.739 2.395-84.322 17.384-122.54 1.961-5 3.824-10.204 6.561-14.839z" fill="#4669A4"/> <path transform="scale(2.9326)" d="m828.92 536.79 8.641 0.184-0.173 0.51c-0.863 2.489-2.182 4.702-3.248 7.105-2.34 5.277-4.446 10.463-5.951 16.048-8.511 31.605-8.614 66.235-1.364 98.11 1.759 7.736 3.713 15.546 7.19 22.72 5.558 11.465 12.987 20.869 25.379 25.091 3.296 1.124 6.677 2.054 10.084 2.776 3.005 0.636 6.587 0.545 9.086 2.421l-21.044 2.352-1.57-0.431c-2.906 0.363-6.289-0.036-9.24-0.229-9.257-0.608-18.022-2.366-26.8-5.301l-13.809-6.189c-1.227-9.009-1.044-18.693-1.126-27.792-0.37-40.739 2.395-84.322 17.384-122.54 1.961-5 3.824-10.204 6.561-14.839z" fill="#11335B"/> <path transform="scale(2.9326)" d="m157.48 407.12 0.88 2.548c3.955 0.802 8.452 0.555 12.49 0.672 1.99 0.057 4.743 0.465 6.586-0.317 0.495 1.122 0.624 1.616 1.543 2.452 1.63 0.97 3.083 1.925 4.421 3.281 0.725 0.736 1.83 2.355 2.658 2.85 1.198 0.716 4.253 1.031 5.69 1.384 3.744 0.919 10.403 1.804 13.325 4.417 2.48 2.217 4.312 6.294 6.101 9.14-0.917 4.963 0.429 10.925 0.926 15.933l2.734 28.357 1.278 20.979 0.057 0.566 0.244 24.116c-3e-3 3.143 0.187 6.498-0.298 9.603l-1.633 20.415c-0.347 3.194-0.459 6.936-1.677 9.92-3.035 1.467-5.831 3.288-8.963 4.545-12.9 5.175-29.595 7.252-43.344 6.297-4.213-0.293-8.356-1.623-12.523-1.833l-13.741 12.42c-4.239-3.275-7.623-7.633-11.718-11.152l10.154-11.656-18.002-24.116c-0.644-0.968-1.278-1.832-2.041-2.71-2.297-1.877-4.253-5.38-6.206-7.715l-11.217-12.284c-1.6372-2.559-5.4954-5.694-7.8782-7.629-3.2222-2.617-9.8215-7.658-14.177-7.759-0.7834-0.018-2.4118 0.582-3.1696 0.8-2.1778 0.627-4.3569 1.779-6.6247 1.963l-0.82 0.053 23.17-44.306c4.1164-6.998 8.3989-14.557 13.854-20.601 2.1361-2.367 4.4691-4.238 7.3361-5.682 10.979-5.527 24.192-6.162 35.497-10.819l0.599-0.254c0.48-1.411 1.443-2.289 2.411-3.397 1.767-1.674 3.589-3.53 5.941-4.304 1.817 0.029 4.476 0.197 6.032-0.803 0.353-1.849 0.239-3.504 0.105-5.374z" fill="#2DAC9A"/> <path transform="scale(2.9326)" d="m162.57 427.13 7.345 9.454c-3.682 0.549-6.132 3.692-8.84 6.048-0.681 0.592-2.382 2.182-3.326 2.245-0.198 0.013-1.484-0.932-1.664-1.062l1.218-6.602 5.267-10.083z" fill="#077375"/> <path transform="scale(2.9326)" d="m174.99 442.98 0.375-0.209c3.419-2.017 5.258-5.486 6.305-9.169 0.382-1.347 0.917-3.594 2.334-4.203 1.123-0.483 1.456-0.475 2.562-0.151 2.443 2.546 5.007 9.266 4.942 12.75-0.013 0.679-0.078 0.776-0.254 1.338-2.572-0.176-4.293-2.647-5.96-4.46-2.644 2.375-5.638 5.608-9.04 6.818l-0.994-0.452-0.411-1.711 0.141-0.551z" fill="#077375"/> <path transform="scale(2.9326)" d="m145.4 417.6c2.609 1.233 3.274 3.424 4.598 5.895l7.302 13.716-1.218 6.602c-5.573-6.797-9.138-15.041-13.093-22.816 0.48-1.411 1.443-2.289 2.411-3.397z" fill="#089899"/> <path transform="scale(2.9326)" d="m145.4 417.6c1.767-1.674 3.589-3.53 5.941-4.304 4.272 4.301 7.712 8.91 11.226 13.832l-5.267 10.083-7.302-13.716c-1.324-2.471-1.989-4.662-4.598-5.895z" fill="#2DAC9A"/> <path transform="scale(2.9326)" d="m157.48 407.12 0.88 2.548c3.955 0.802 8.452 0.555 12.49 0.672 1.99 0.057 4.743 0.465 6.586-0.317 0.495 1.122 0.624 1.616 1.543 2.452-1.248 3.519-1.529 7.585-1.948 11.29l-2.047 19.213-0.141 0.551c-1.827-2.082-3.35-4.659-4.929-6.946l-7.345-9.454c-3.514-4.922-6.954-9.531-11.226-13.832 1.817 0.029 4.476 0.197 6.032-0.803 0.353-1.849 0.239-3.504 0.105-5.374z" fill="#F7CEB5"/> <path transform="scale(2.9326)" d="m107.11 500.85c3.007-5.106 7.347-9.903 11.161-14.431 5.563-6.604 11.054-13.194 17.183-19.292-5.106 10.778-10.832 21.227-15.249 32.335-1.642 4.126-3.606 8.808-3.87 13.274-0.153 2.583 0.694 5.6 1.579 8.01 2.291 6.241 5.549 11.771 9.838 16.826 10.655 12.557 24.145 19.237 40.313 21.654 6.139 0.917 13.096 0.669 19.187-0.544l0.876-0.164c4.556-0.879 8.471-2.938 12.057-5.83l0.637-0.505c5.515-4.457 8.672-10.713 11.228-17.18 0.743-1.882 1.315-4.301 2.702-5.782l1.002 0.478 0.365 3.409-1.633 20.415c-0.347 3.194-0.459 6.936-1.677 9.92-3.035 1.467-5.831 3.288-8.963 4.545-12.9 5.175-29.595 7.252-43.344 6.297-4.213-0.293-8.356-1.623-12.523-1.833l-13.741 12.42c-4.239-3.275-7.623-7.633-11.718-11.152l10.154-11.656-18.002-24.116c-0.644-0.968-1.278-1.832-2.041-2.71-2.297-1.877-4.253-5.38-6.206-7.715l-11.217-12.284 11.902-14.389z" fill="#089899"/> <path transform="scale(2.9326)" d="m95.206 515.24 11.902-14.389c1.159 11.238 2.644 23.455 5.521 34.388-2.297-1.877-4.253-5.38-6.206-7.715l-11.217-12.284z" fill="#FEFEFE"/> <path transform="scale(2.9326)" d="m132.67 562.06c4.884 4.347 9.452 7.5 15.305 10.388l-13.741 12.42c-4.239-3.275-7.623-7.633-11.718-11.152l10.154-11.656z" fill="#F7CEB5"/> <path transform="scale(2.9326)" d="m711.11 423.34c0.946 0.01 1.806 0.142 2.736 0.312l7.379 11.917c2.051-0.796 3.997-2.574 5.779-3.867 3.713-2.695 7.584-5.272 10.96-8.389l0.474-0.448 1.095 0.036 1.877 1.687c13.13 2.662 26.462 8.85 36.627 17.596 10.024 7.172 14.641 15.14 19.762 26.212l5.81 13.221c1.793 6.472 4.253 14.127 7.097 20.235 3.587 11.875 8.531 27.845 5.474 40.2l-0.239 0.988c-1.564 6.35-4.84 12.417-7.889 18.157-7.058 13.285-15.258 25.405-23.56 37.908-2.787 4.197-6.229 10.841-10.059 13.928-0.854-0.014-2.136 0.143-2.936-0.049-1.228-0.296-3.495-4.021-4.637-5.031l-0.769-0.66-0.045-0.242c-0.879-0.143-1.478 4e-3 -2.042-0.804-0.865-1.238-1.103-3.676-1.406-5.148l-2.599-12.92c-0.505-2.247-1.643-4.979-1.791-7.182-0.062-0.92 0.179-1.917 0.393-2.807l-2.557 0.627c-25.101 5.878-54.598 6.823-77.165-7.294-1.19-5.16-0.748-11.888-0.89-17.258l-0.432-38.056c-0.017-7.399 0.307-14.981-0.276-22.347 0.699-2.578 0.117-6.176 0.269-8.946 0.214-3.896 0.755-7.801 1.255-11.67 1.149-8.874 3.085-17.829 5.2-26.523l2.974-10.226c0.622-2 1.556-3.832 1.013-5.88 5.27-4.172 15.772-5.932 22.335-7.029l0.783-0.248z" fill="#FED04F"/> <path transform="scale(2.9326)" d="m711.11 423.34c0.946 0.01 1.806 0.142 2.736 0.312l7.379 11.917c2.051-0.796 3.997-2.574 5.779-3.867 3.713-2.695 7.584-5.272 10.96-8.389l0.474-0.448 1.095 0.036 1.877 1.687c-0.421 1.394-0.906 2.866-1.858 3.998-1.633 1.939-4.062 3.667-6.042 5.278-4.518 3.675-9.233 7.402-14.301 10.28l-0.57-0.345c-2.035-3.487-8.699-16.352-8.312-20.211l0.783-0.248z" fill="#F6A622"/> <path transform="scale(2.9326)" d="m778.04 442.19c10.024 7.172 14.641 15.14 19.762 26.212l5.81 13.221c1.793 6.472 4.253 14.127 7.097 20.235 3.587 11.875 8.531 27.845 5.474 40.2l-0.239 0.988c-1.564 6.35-4.84 12.417-7.889 18.157-7.058 13.285-15.258 25.405-23.56 37.908-2.787 4.197-6.229 10.841-10.059 13.928-0.854-0.014-2.136 0.143-2.936-0.049-1.228-0.296-3.495-4.021-4.637-5.031l-0.769-0.66-0.045-0.242c-0.879-0.143-1.478 4e-3 -2.042-0.804-0.865-1.238-1.103-3.676-1.406-5.148l-2.599-12.92c-0.505-2.247-1.643-4.979-1.791-7.182-0.062-0.92 0.179-1.917 0.393-2.807l4.625-1.129c-8e-3 -7.357 1.025-14.515 1.822-21.804l5.31-41.409c-0.411-2.781-2.33-5.847-3.574-8.361-3.421-6.914-7.67-13.765-10.147-21.074l-0.283-0.854c-2.044-6.064-3.456-12.809-2.494-19.21l0.136-0.852c0.841-5.492 2.83-11.954 6.929-15.954 4.766-4.651 10.732-5.574 17.112-5.359z" fill="#F6A622"/> <path transform="scale(2.9326)" d="m777.94 564.1c-0.536-2.604-0.07-5.593 0.093-8.234l0.687-13.865c0.125-3.547-0.571-9.995 0.972-13.087 1.36 2.22 4.47 6.096 5.079 8.512 0.343 1.358-1.409 6.743-1.805 8.394l-5.026 18.28z" fill="#FEFEFE"/> <path transform="scale(2.9326)" d="m775.96 572.5-6.993 25.486c-0.733 2.619-1.305 7.009-2.921 9.071-0.879-0.143-1.478 4e-3 -2.042-0.804-0.865-1.238-1.103-3.676-1.406-5.148l-2.599-12.92c-0.505-2.247-1.643-4.979-1.791-7.182-0.062-0.92 0.179-1.917 0.393-2.807l4.625-1.129 12.734-4.567z" fill="#052145"/> <path transform="scale(2.9326)" d="m770.36 513.85c3.647 3.927 6.621 10.366 9.334 15.062-1.543 3.092-0.847 9.54-0.972 13.087l-0.687 13.865c-0.163 2.641-0.629 5.63-0.093 8.234 0.07 1.135-0.167 1.831-0.529 2.893l-1.451 5.505-12.734 4.567c-8e-3 -7.357 1.025-14.515 1.822-21.804l5.31-41.409z" fill="#F8BC45"/> <path transform="scale(2.9326)" d="m785.56 122.2c4.812-0.236 9.721-0.121 14.496 0.549 21.989 3.086 41.164 14.934 54.311 32.697 12.038 16.266 17.248 37.517 14.115 57.549-3.118 19.939-14.194 38.233-30.581 50.028-18.637 13.415-38.779 16.289-61.114 12.588-3.787-0.877-7.62-1.904-11.241-3.327-2.748-1.081-6.884-3.656-9.662-4.092-0.763-0.12-2.419 0.459-3.147 0.658l-9.736 3.107-26.495 8.208c1.387-4.774 10.617-32.598 10.21-35.367-0.084-0.572-1.673-2.488-2.047-3.056-1.583-2.402-3.055-4.837-4.342-7.411-4.471-8.944-7.115-18.502-8.061-28.445-2.014-21.187 4.827-41.158 18.519-57.311 13.761-16.233 33.908-24.803 54.775-26.375z" fill="#F98662"/> <path transform="scale(2.9326)" d="m822.73 173.75c0.409-0.195 0.542-0.289 1.049-0.356 1.45-0.192 2.63 0.088 3.766 0.972 0.894 0.696 1.435 1.608 1.516 2.746 0.134 1.889-0.373 2.835-1.642 4.163l-26.262 26.33c-4.577 4.619-9.369 10.594-14.521 14.479-1.024 0.772-1.981 1.145-3.285 1.143-1.194-1e-3 -2.613-0.169-3.601-0.904-2.38-1.769-4.58-5.179-6.658-7.394l-13.27-13.435c-1.509-1.613-4.207-4.229-4.35-6.494-0.082-1.301 0.333-2.338 1.171-3.312 0.642-0.747 1.982-1.46 2.969-1.374 3.204 0.279 20.71 20.327 23.769 23.587l38.909-39.778 0.44-0.373z" fill="#FEFEFE"/> <path transform="scale(2.9326)" d="m822.36 490.84c5.025 11.031 7.152 23.862 7.222 35.926 0.02 3.271 0.216 6.863-0.669 10.028-2.737 4.635-4.6 9.839-6.561 14.839-14.989 38.214-17.754 81.797-17.384 122.54 0.082 9.099-0.101 18.783 1.126 27.792l13.809 6.189c8.778 2.935 17.543 4.693 26.8 5.301 2.951 0.193 6.334 0.592 9.24 0.229l1.57 0.431 21.044-2.352 17.513-3.202c8.915 34.629 10.222 71.707 13.938 107.18 0.315 3.003 1.228 18.525 2.224 19.715-0.757 6.129-5.183 13.369-7.779 19.052l-1.193 2.906-50.205-0.953c-1.8-2.205-3.456-3.547-6.12-4.589-1.926 0.644-3.233 3.025-4.372 4.632-3.077 4.341-6.95 11.652-11.525 14.293-1.851 1.068-4.498 1.466-6.571 1.972 2.672-4.912 4.42-10.891 6.801-16.052l-71.226 0.778-2.397 0.899c-1.246-1.209-1.637-1.393-2.007-3.14 1.491-1.835 0.125-4.876 1.441-7.124 0.791-0.152 1.427-0.431 2.168-0.739 1.075-3.556 1.032-7.848 1.431-11.571l2.937-31.399 5.698-111.67 0.154-77.935c0.254-0.557 0.627-0.914 1.03-1.368 1.491 0.121 2.53 0.246 3.936-0.411 3.83-3.087 7.272-9.731 10.059-13.928 8.302-12.503 16.502-24.623 23.56-37.908 3.049-5.74 6.325-11.807 7.889-18.157l0.239-0.988c3.057-12.355-1.887-28.325-5.474-40.2l11.654-11.016z" fill="#FEFEFE"/> <path transform="scale(2.9326)" d="m819.91 708.15c8.778 2.935 17.543 4.693 26.8 5.301 2.951 0.193 6.334 0.592 9.24 0.229 1.387 11.689-1.226 24.113-2.302 35.815-0.508 5.532-0.498 11.125-1.192 16.639 0.123 6.537-0.921 13.273-1.401 19.805l-3.88 49.381c-0.332 4.747-1.725 11.548-0.862 16.079l0.629 0.47c-1.926 0.644-3.233 3.025-4.372 4.632-3.077 4.341-6.95 11.652-11.525 14.293-1.851 1.068-4.498 1.466-6.571 1.972 2.672-4.912 4.42-10.891 6.801-16.052 1.15-2.883 1.739-5.85 1.675-8.963-0.12-5.863-0.95-11.671-1.514-17.498l-3.1-30.752-3.575-39.876-4.243-43.991-0.608-7.484z" fill="#FEB386"/> <path transform="scale(2.9326)" d="m819.91 708.15c8.778 2.935 17.543 4.693 26.8 5.301 2.951 0.193 6.334 0.592 9.24 0.229 1.387 11.689-1.226 24.113-2.302 35.815-0.508 5.532-0.498 11.125-1.192 16.639-0.922-0.788-1.175-0.958-1.469-2.177-0.881-3.656-0.903-7.862-1.334-11.607-0.712-6.186-2.193-12.542-4.84-18.193-4.276-9.129-15.182-15.093-24.295-18.523l-0.608-7.484z" fill="#F98662"/> <path transform="scale(2.9326)" d="m878.56 711.76 17.513-3.202c8.915 34.629 10.222 71.707 13.938 107.18 0.315 3.003 1.228 18.525 2.224 19.715-0.757 6.129-5.183 13.369-7.779 19.052l-1.193 2.906-50.205-0.953c-1.8-2.205-3.456-3.547-6.12-4.589l-0.629-0.47c-0.863-4.531 0.53-11.332 0.862-16.079l3.88-49.381c0.48-6.532 1.524-13.268 1.401-19.805 0.694-5.514 0.684-11.107 1.192-16.639 1.076-11.702 3.689-24.126 2.302-35.815l1.57 0.431 21.044-2.352z" fill="#FEFEFE"/> <path transform="scale(2.9326)" d="m878.56 711.76 17.513-3.202c8.915 34.629 10.222 71.707 13.938 107.18 0.315 3.003 1.228 18.525 2.224 19.715-0.757 6.129-5.183 13.369-7.779 19.052-1.822-4.997-2.124-10.505-3.624-15.628l-11.819-34.922-19.448-56.08-7.943-21.921c-1.456-3.993-3.115-7.68-4.106-11.843l21.044-2.352z" fill="#FEB386"/> <path transform="scale(2.9326)" d="m678.88 571.53c22.567 14.117 52.064 13.172 77.165 7.294l2.557-0.627c-0.214 0.89-0.455 1.887-0.393 2.807 0.148 2.203 1.286 4.935 1.791 7.182l2.599 12.92c0.303 1.472 0.541 3.91 1.406 5.148 0.564 0.808 1.163 0.661 2.042 0.804l0.045 0.242 0.769 0.66c1.142 1.01 3.409 4.735 4.637 5.031 0.8 0.192 2.082 0.035 2.936 0.049-1.406 0.657-2.445 0.532-3.936 0.411-0.403 0.454-0.776 0.811-1.03 1.368l-0.154 77.935-5.698 111.67-2.937 31.399c-0.399 3.723-0.356 8.015-1.431 11.571-0.741 0.308-1.377 0.587-2.168 0.739l-15.771 1.49c0.242 2.215 0.669 4.333-0.395 6.408-1.425 0.02-2.415-0.028-3.66 0.783l-49.741 0.381-2.094 0.281c-0.409-0.22-0.455-0.223-0.87-0.57-2.608-2.183-2.415-4.878-2.618-7.971l-13.874 0.59c-2.17-5.856-2.361-13.806-3.162-19.992l-5.31-41.41-8.143-59.188-1.919-13.694c-0.406-2.666-1.145-5.774-0.956-8.466 0.188-2.676 1.419-5.809 2.144-8.445l4.911-17.823 13.124-51.429 7.638-31.797c1.065-4.945 2.422-9.927 2.96-14.959 0.383-3.594-0.087-7.212-0.464-10.789z" fill="#11335B"/> <path transform="scale(2.9326)" d="m766.09 607.3 0.769 0.66c1.142 1.01 3.409 4.735 4.637 5.031 0.8 0.192 2.082 0.035 2.936 0.049-1.406 0.657-2.445 0.532-3.936 0.411-0.403 0.454-0.776 0.811-1.03 1.368-5.242 6.843-8.763 14.735-14.649 21.054-1.268 1.363-2.745 3.108-4.321 4.095-1.175 0.736-1.948 0.566-3.25 0.307-0.568-0.645-2.427-2.352-2.695-3.061-5e-3 -0.014 0.357-1.074 0.385-1.152 2.336-6.569 7.681-12.179 11.923-17.616 0.646-0.827 2.986-3.256 2.959-4.192l-10.572 1.291c-1.593-0.071-1.706-0.615-2.643-1.791 0.858-1.194 2.015-1.53 3.319-2.075 5.06-2.115 10.779-3.403 16.168-4.379z" fill="#F7CEB5"/> <path transform="scale(2.9326)" d="m681.93 848.93c0.886-0.139 3.455-0.214 3.872-0.957 0.959-1.709 0.632-5.577 0.739-7.566l1.189-22.545 3.133-57.114 1.079-25.616c-4e-3 -6.974-0.519-14.471-2.421-21.188l17.407-33.262c3.999-8.189 7.384-17.479 12.428-25.043l3.025 27.316 4.446 39.131 10.2 94.416 2.254 19.434c0.439 4.172 0.371 9.884 2.027 13.682 0.242 2.215 0.669 4.333-0.395 6.408-1.425 0.02-2.415-0.028-3.66 0.783l-49.741 0.381-2.094 0.281c-0.409-0.22-0.455-0.223-0.87-0.57-2.608-2.183-2.415-4.878-2.618-7.971z" fill="#FEFEFE"/> <path transform="scale(2.9326)" d="m556.12 218.53 78.188 0.062 13.534-9e-3c1.101-4e-3 3.642-0.358 4.601-0.019 0.831 0.294 2.246 1.49 2.916 2.082 1.119 0.989 1.966 2.376 2.171 3.853 0.827 5.954 0.042 13.262 0.035 19.334l-0.051 45.865-0.01 112.08 0.026 58.136c8.756-10.756 18.489-22.093 30.47-29.291 0.543 2.048-0.391 3.88-1.013 5.88l-2.974 10.226c-2.115 8.694-4.051 17.649-5.2 26.523-0.5 3.869-1.041 7.774-1.255 11.67-0.152 2.77 0.43 6.368-0.269 8.946l-20.061 19.741c-6.238 5.7-12.258 11.954-20.893 13.515l0.23 103.96-214.93-0.047-81.148-0.198c-2.298-0.468-5.165-0.196-7.513-0.193l-13.706 0.325 0.11-163.53c6.908-2.537 14.249-3.031 21.082-6.021l2.21-1.883-0.947-0.795c-0.21-1.938-0.279-3.728-0.135-5.673l-1.118-0.682-0.117-212.21 78.699 0.177-0.032 16.745 137.39 0.277-0.08-16.711-0.209-22.124z" fill="#E2E7F0"/> <path transform="scale(2.9326)" d="m341.58 453.06c1.63 1.047 2.512 1.612 3.25 3.438-0.537 1.518-0.995 2.014-2.168 3.03l-0.947-0.795c-0.21-1.938-0.279-3.728-0.135-5.673z" fill="#FEB386"/> <path transform="scale(2.9326)" d="m578.89 440.18c-1.306 1.619-2.954 3.018-4.463 4.449-5.697-7.802-14.195-14.76-21.096-21.608-2.581 1.394-5.702 6.837-7.564 9.351-6.795 9.167-13.287 19.327-20.785 27.864-0.753 0.857-0.575 0.988-1.734 1.067l-0.114-1.056 29.771-39.938 21.872 21.176c2.214-1.79 4.099-5.185 5.807-7.515 9.242-12.602 17.516-25.811 25.472-39.253-1.946-1.427-4.391-2.451-6.536-3.568l14.654-9.167-1.11 17.239-5.27-3.772-28.199 43.829-0.705 0.902z" fill="#E8403C"/> <path transform="scale(2.9326)" d="m579.6 439.28 0.684-0.107c2.466-0.458 4.336-2.386 6.969-2.814l0.603-0.101c1.985-0.292 4.214 0.026 5.844 1.279 5.238 4.027 6.762 9.86 9.799 15.389l-14.447 8.585c-0.696-2.016-3.279-3.433-4.86-4.922-1.687-1.589-2.872-3.378-3.848-5.472-1.568-3.364-0.23-6.927-1.233-10.261l-0.216-0.674 0.705-0.902z" fill="#F9BFA0"/> <path transform="scale(2.9326)" d="m459.84 316.95 61.338-0.121 0.102 11.184-61.329 0.094-0.111-11.157z" fill="#C8D0E2"/> <path transform="scale(2.9326)" d="m521.08 578.75c0.96 0.09 0.476-0.086 1.351 0.75l0.028 10.701-60.209-0.012c-1.061-0.086-1.012 0.08-1.86-0.689l-0.046-10.534 60.736-0.216z" fill="#C8D0E2"/> <path transform="scale(2.9326)" d="m460.01 340.27 61.351 0.114 0.075 11.391-61.128 0.236-0.298-11.741z" fill="#C8D0E2"/> <path transform="scale(2.9326)" d="m460 423.47 61.591 0.064-0.064 11.524-61.48 0.061-0.047-11.649z" fill="#C8D0E2"/> <path transform="scale(2.9326)" d="m459.93 554.98 62.598-0.047-0.033 11.588-62.46-0.04-0.105-11.501z" fill="#C8D0E2"/> <path transform="scale(2.9326)" d="m460.02 399.52 61.491 0.059-0.043 11.781-61.446 0.144-2e-3 -11.984z" fill="#C8D0E2"/> <path transform="scale(2.9326)" d="m459.83 502.86 62.273 0.113-0.014 11.612-62.206 0.25-0.053-11.975z" fill="#C8D0E2"/> <path transform="scale(2.9326)" d="m540.31 316.96 70.967 0.039-0.103 10.582-70.875 0.096 0.011-10.717z" fill="#C8D0E2"/> <path transform="scale(2.9326)" d="m539.54 578.65 71.531-0.152-0.045 11.437-71.562 0.081 0.076-11.366z" fill="#C8D0E2"/> <path transform="scale(2.9326)" d="m540.43 340.43 71.027 0.076-9e-3 11.381-71.008 0.116-0.01-11.573z" fill="#C8D0E2"/> <path transform="scale(2.9326)" d="m538.99 554.92 72.47-0.077-0.102 11.625-72.331-0.21-0.037-11.338z" fill="#C8D0E2"/> <path transform="scale(2.9326)" d="m606.73 502.81 8.068 12.015-75.362-0.124-0.035-11.717 67.329-0.174z" fill="#C8D0E2"/> <path transform="scale(2.9326)" d="m593.44 477.94 6.1 12.137-139.89-0.032-0.013-11.98 133.81-0.125z" fill="#C8D0E2"/> <path transform="scale(2.9326)" d="m419.01 257.09 137.39 0.277c4.497-0.056 14.249-1.381 17.774 1.33 1.197 0.92 1.734 2.086 1.847 3.58 0.117 1.543-0.219 3.203-1.281 4.374-1.587 1.751-3.267 1.968-5.515 2.079-9.643 0.479-19.548-0.013-29.212-0.06l-54.371-0.165-49.396 0.17c-9.155 0.065-18.519 0.519-27.658 0.075-1.682-0.082-3.166-0.206-4.441-1.402-1.287-1.206-1.792-2.47-1.816-4.256-0.026-1.815 0.342-3.547 1.773-4.794 2.844-2.479 11.184-1.28 14.905-1.208z" fill="#11335B"/> <path transform="scale(2.9326)" d="m319.37 467.43c6.908-2.537 14.249-3.031 21.082-6.021l0.027 169.42c-2.298-0.468-5.165-0.196-7.513-0.193l-13.706 0.325 0.11-163.53z" fill="#4669A4"/> <path transform="scale(2.9326)" d="m361.68 543.62 64.844-0.134-0.237 55.11-64.484-0.085-0.123-54.891z" fill="#F98662"/> <path transform="scale(2.9326)" d="m361.72 467.33 64.742 0.096-0.179 55.582-64.699 0.039 0.136-55.717z" fill="#70BEF2"/> <path transform="scale(2.9326)" d="m361.66 389.54 64.564 0.087 0.115 57.251-64.859-0.08 0.18-57.258z" fill="#4D9853"/> <path transform="scale(2.9326)" d="m378.57 312.25 47.792 0.11-0.171 57.342-15.623-0.087-48.965-0.118-0.082-57.214 17.049-0.033z" fill="#70BEF2"/> <path transform="scale(2.9326)" d="m688 430.62c0.543 2.048-0.391 3.88-1.013 5.88l-2.974 10.226c-2.115 8.694-4.051 17.649-5.2 26.523-0.5 3.869-1.041 7.774-1.255 11.67-0.152 2.77 0.43 6.368-0.269 8.946l-20.061 19.741c-6.238 5.7-12.258 11.954-20.893 13.515-10.255-1.594-14.714-4.696-21.533-12.299l-8.068-12.015-7.192-12.728-6.1-12.137c-1.801-3.865-5.615-10.321-5.913-14.37-0.064-0.873 0.933-1.477 1.525-2.06l14.447-8.585c3.878 0.893 7.311 6.62 9.801 9.662l14.857 18.241c1.694 2.136 4.482 6.713 6.596 8.19 0.707 0.493 0.688 0.322 1.329 0.017 1.469-1.116 2.398-2.994 3.408-4.537l5.247-7.732 12.791-16.857c8.756-10.756 18.489-22.093 30.47-29.291z" fill="#F6A622"/> <path transform="scale(2.9326)" d="m556.12 218.53 78.188 0.062 13.534-9e-3c1.101-4e-3 3.642-0.358 4.601-0.019 0.831 0.294 2.246 1.49 2.916 2.082 1.119 0.989 1.966 2.376 2.171 3.853 0.827 5.954 0.042 13.262 0.035 19.334l-0.051 45.865-0.01 112.08 0.026 58.136-12.791 16.857-5.247 7.732c-1.01 1.543-1.939 3.421-3.408 4.537 1.037-8.849 0.396-18.335 0.41-27.273l0.061-51.72 0.169-169.5-80.395 0.115-0.209-22.124z" fill="#4669A4"/> <path transform="scale(2.9326)" d="m312.04 470.8c1.906-1.599 4.85-3.168 7.33-3.366l-0.11 163.53 13.706-0.325c2.348-3e-3 5.215-0.275 7.513 0.193l81.148 0.198 214.93 0.047-0.23-103.96c8.635-1.561 14.655-7.815 20.893-13.515l20.061-19.741c0.583 7.366 0.259 14.948 0.276 22.347l0.432 38.056c0.142 5.37-0.3 12.098 0.89 17.258 0.377 3.577 0.847 7.195 0.464 10.789-0.538 5.032-1.895 10.014-2.96 14.959l-7.638 31.797-13.124 51.429-4.911 17.823c-0.725 2.636-1.956 5.769-2.144 8.445-0.189 2.692 0.55 5.8 0.956 8.466l1.919 13.694 8.143 59.188 5.31 41.41c0.801 6.186 0.992 14.136 3.162 19.992l13.874-0.59c0.203 3.093 0.01 5.788 2.618 7.971 0.415 0.347 0.461 0.35 0.87 0.57l2.094-0.281 49.741-0.381c1.245-0.811 2.235-0.763 3.66-0.783 1.064-2.075 0.637-4.193 0.395-6.408l15.771-1.49c-1.316 2.248 0.05 5.289-1.441 7.124 0.37 1.747 0.761 1.931 2.007 3.14l2.397-0.899 71.226-0.778c-2.381 5.161-4.129 11.14-6.801 16.052 2.073-0.506 4.72-0.904 6.571-1.972 4.575-2.641 8.448-9.952 11.525-14.293 1.139-1.607 2.446-3.988 4.372-4.632 2.664 1.042 4.32 2.384 6.12 4.589l50.205 0.953 1.193-2.906c2.596-5.683 7.022-12.923 7.779-19.052 3.717 1.277 7.18 2.711 8.952 6.537 1.721 3.718 2.316 8.524 3.297 12.537 4.947 0.478 10.514 0.492 15.063 2.673 6.651 3.189 12.069 9.581 14.406 16.566l0.213 0.659c1.243 3.691 1.269 8.545 0.295 12.326-1.856 7.203-7.127 14.621-13.711 18.243-5.806 3.194-11.39 4.106-17.905 4.224l-119.68 0.155-128.3-0.067-386.56-0.074-124.05 9e-3 -43.502 0.136-17.36-0.016c-3.9632-0.033-8.4165 0.142-12.22-1.092l-0.6719-0.233c-1.7912-0.595-3.4026-1.322-5.0434-2.255-7.2616-4.129-13.577-10.615-15.817-18.866l-0.2399-0.914c-0.8573-3.164-1.2574-6.618-0.6493-9.874l0.1258-0.626c1.9721-10.297 10.773-19.999 20.994-22.791 2.2895-0.626 6.3984-0.493 8.3654-1.459 0.3152-0.155 1.1001-1.408 1.3677-1.75l8.0646-0.075 19.918 0.041 10.409-0.052c0.779-4.354 2.498-10.565 1.42-14.901-1.217-0.969-2.58-0.899-4.065-1.009-2.094 0.839-5.482 0.51-7.775 0.529l-17.222 0.083 9.48-65.893 5.31-27.889c1.696-7.57 4.346-15.733 5.107-23.405 0.87-8.778 0.131-18.389-0.097-27.235l-0.161-28.209c-0.012-12.952-1.228-67.457 4.244-76.616l13.741-12.42c4.167 0.21 8.31 1.54 12.523 1.833 13.749 0.955 30.444-1.122 43.344-6.297 3.132-1.257 5.928-3.078 8.963-4.545 1.218-2.984 1.33-6.726 1.677-9.92l1.633-20.415c0.485-3.105 0.295-6.46 0.298-9.603l-0.244-24.116c4.257 4.334 8.474 8.863 13.888 11.754 4.43 2.366 8.995 3.284 13.858 1.676l0.833-0.291c11.884-4.076 22.769-11.559 33.168-18.432l34.123-23.293z" fill="#E2E7F0"/> <path transform="scale(2.9326)" d="m846.94 851.87c2.664 1.042 4.32 2.384 6.12 4.589 0.783 4.629 0.09 7.808-0.527 12.293l-1.345 13c-1.146 0.586-1.376 0.398-2.665 0.162-1.715-3.3 1.087-12.482-2.021-14.416-3.737 1.469-6.809 7.004-8.378 10.56-0.635 1.441-1.096 2.914-1.482 4.44-5.541 0.115-26.641 1.528-30.333-0.303-0.488-1.468-0.514-1.37 0.143-2.766 3.873-2.604 8.857-4.092 13.3-5.416 1.221-0.364 3.49-1.271 4.72-1.246 2.073-0.506 4.72-0.904 6.571-1.972 4.575-2.641 8.448-9.952 11.525-14.293 1.139-1.607 2.446-3.988 4.372-4.632z" fill="#11335B"/> <path transform="scale(2.9326)" d="m912.24 835.45c3.717 1.277 7.18 2.711 8.952 6.537 1.721 3.718 2.316 8.524 3.297 12.537 0.916 3.52 2.03 7.117 2.495 10.724-1.11 0.974-1.497 0.946-2.979 1.192-1.387-1.281-1.857-3.813-2.481-5.565-1.006-2.822-2.159-5.634-3.441-8.342l-0.166 0.511c-1.368 4.07-3.484 7.815-4.927 11.848-0.816 2.28-1.015 5.914-2.296 7.79-2.31 3.382-6.813 7.09-10.255 9.233l-14.421 0.806c-3.056 0.145-6.219 0.641-9.263 0.451-0.41-1.044-0.363-1.551-0.15-2.644 4.441-3.669 23.596-13.893 23.637-14.077 0.681-3.058 1.808-6.16 3.026-9.043l1.193-2.906c2.596-5.683 7.022-12.923 7.779-19.052z" fill="#11335B"/> <path transform="scale(2.9326)" d="m741.31 849.62 15.771-1.49c-1.316 2.248 0.05 5.289-1.441 7.124 0.37 1.747 0.761 1.931 2.007 3.14l2.397-0.899 0.957 0.455c2.075 2.263 2.571 8.293 3.209 11.387l3.474 15.385-66.81-0.067c0.322-1.163 0.858-4.569 1.484-5.332 0.334-0.407 1.881-0.973 2.462-1.262l8.578-3.905c5.836-2.74 12.043-5.584 17.107-9.632 2.618-2.093 4.7-5.079 6.75-7.713 1.245-0.811 2.235-0.763 3.66-0.783 1.064-2.075 0.637-4.193 0.395-6.408z" fill="#11335B"/> <path transform="scale(2.9326)" d="m741.31 849.62 15.771-1.49c-1.316 2.248 0.05 5.289-1.441 7.124 0.37 1.747 0.761 1.931 2.007 3.14l-8.222 5.301c-2.542-3.269-5.114-5.345-8.51-7.667 1.064-2.075 0.637-4.193 0.395-6.408z" fill="#F9BFA0"/> <path transform="scale(2.9326)" d="m668.06 849.52 13.874-0.59c0.203 3.093 0.01 5.788 2.618 7.971 0.415 0.347 0.461 0.35 0.87 0.57l2.094-0.281c2.038 3.436 3.174 7.83 4.497 11.598l5.652 15.791-53.082-0.1-12.712-0.058c-1.363-0.014-2.946 0.233-4.12-0.541-0.112-0.475-0.158-0.569-0.151-1.128 0.022-1.577 0.43-3.626 1.651-4.721 2.201-1.975 5.817-3.3 8.489-4.563 6.751-3.189 14.437-6.117 20.415-10.651 2.261-1.714 4.224-3.928 6.171-5.985 1.893-1.266 3.426-1.845 5.65-2.314l0.059-0.627c0.028-1.832-0.746-3.101-1.975-4.371z" fill="#11335B"/> <path transform="scale(2.9326)" d="m668.06 849.52 13.874-0.59c0.203 3.093 0.01 5.788 2.618 7.971 0.415 0.347 0.461 0.35 0.87 0.57-1.76 2.318-4.474 4.302-6.74 6.107-2.402-3.407-5.692-6.201-8.706-9.06l0.059-0.627c0.028-1.832-0.746-3.101-1.975-4.371z" fill="#F9BFA0"/> <path transform="scale(2.9326)" d="m107.67 849.42 19.918 0.041c-0.205 2.252-0.757 4.918-0.363 7.132l14.974 8.041c5.184 2.685 11.858 5.134 16.175 8.999 2.939 2.63 5.306 6.4 6.507 10.157l0.193 0.642-68.7-0.073 10.268-28.038c0.569-2.324 0.832-4.525 1.028-6.901z" fill="#052145"/> <path transform="scale(2.9326)" d="m107.67 849.42 19.918 0.041c-0.205 2.252-0.757 4.918-0.363 7.132-0.289 1.602-0.648 2.698-1.378 4.152-1.477 1.276-3.043 1.501-4.963 1.506-6.336 0.016-9.835-1.462-14.242-5.93 0.569-2.324 0.832-4.525 1.028-6.901z" fill="#FEB386"/> <path transform="scale(2.9326)" d="m538.59 859.34c0.733 0.907 1.126 1.13 2.159 1.618 14.341 6.772 31.954 7.954 47.627 7.09 8.304-0.457 16.753-1.461 24.689-4.044 3.341-1.087 6.496-2.396 9.5-4.24l-0.095 1.86-0.031 17.58c-9.197 8.551-36.776 8.202-49.089 7.765-8.988-0.319-18.903-0.811-27.53-3.583-1.968-0.632-4.47-1.503-5.874-3.092-0.654-0.741-0.844-1.218-1.003-2.183-0.549-2.129-0.348-4.66-0.355-6.859l2e-3 -11.912z" fill="#F6A622"/> <path transform="scale(2.9326)" d="m538.59 859.34c0.733 0.907 1.126 1.13 2.159 1.618 14.341 6.772 31.954 7.954 47.627 7.09 8.304-0.457 16.753-1.461 24.689-4.044 3.341-1.087 6.496-2.396 9.5-4.24l-0.095 1.86c-10.534 6.81-23.799 7.839-36.029 8.254-10.861 0.37-21.674 0.061-32.329-2.257-5.188-1.129-11.152-2.403-15.069-6.19l-0.1 16.68c-0.549-2.129-0.348-4.66-0.355-6.859l2e-3 -11.912z" fill="#FED04F"/> <path transform="scale(2.9326)" d="m538.58 837.71c1.25 2.35 4.397 3.237 6.74 4.17 10.275 4.093 22.855 4.634 33.81 4.664 12.869 0.035 28.002-0.473 39.904-5.886 1.152-0.524 2.198-1.139 3.242-1.851l0.137 13.815 0.111 4.258 0.038 2.881c-3.004 1.844-6.159 3.153-9.5 4.24-7.936 2.583-16.385 3.587-24.689 4.044-15.673 0.864-33.286-0.318-47.627-7.09-1.033-0.488-1.426-0.711-2.159-1.618l0.07-12.58-0.232-2.765 0.155-6.282z" fill="#F6A622"/> <path transform="scale(2.9326)" d="m538.58 837.71c1.25 2.35 4.397 3.237 6.74 4.17 10.275 4.093 22.855 4.634 33.81 4.664 12.869 0.035 28.002-0.473 39.904-5.886 1.152-0.524 2.198-1.139 3.242-1.851l0.137 13.815c-0.503-3.623-0.268-7.596-0.342-11.268-3.566 1.748-7.115 2.95-10.942 3.978-19.078 5.122-54.799 5.239-71.981-4.643l-0.491 6.068-0.232-2.765 0.155-6.282z" fill="#FED04F"/> <path transform="scale(2.9326)" d="m622.51 816.66-0.055 2.837c-0.021 6.126 0.707 13.316-0.178 19.31-1.044 0.712-2.09 1.327-3.242 1.851-11.902 5.413-27.035 5.921-39.904 5.886-10.955-0.03-23.535-0.571-33.81-4.664-2.343-0.933-5.49-1.82-6.74-4.17l-0.119-14.683 0.343-5.317c12.974 6.691 30.342 7.809 44.731 7.417 13.345-0.265 27.111-1.932 38.974-8.467z" fill="#F6A622"/> <path transform="scale(2.9326)" d="m622.51 816.66-0.055 2.837-0.781 0.221c-2.703 0.802-5.186 2.397-7.927 3.258-9.856 3.098-20.681 3.634-30.937 3.771-14.893 0.499-29.827-0.943-43.655-6.615l-0.693 2.895 0.343-5.317c12.974 6.691 30.342 7.809 44.731 7.417 13.345-0.265 27.111-1.932 38.974-8.467z" fill="#FED04F"/> <path transform="scale(2.9326)" d="m246.94 839.43c0.047 1.631-0.107 3.444 0.563 4.935l15.029-3e-3 0.476 24.54 0.416 0.339c2.542 2.124 4.54 4.68 6.868 7.013 3.693 3.699 8.317 5.959 12.969 8.171l0.248 0.137-69.774-0.247 3.92-28.909 0.153-7.606 18.653 0.113 9.782 0.155 0.697-8.638z" fill="#052145"/> <path transform="scale(2.9326)" d="m217.81 847.8 18.653 0.113c6e-3 2.139-0.526 6.28 0.539 8.079l-0.466 0.783c-0.588 1.007-1.124 2.002-2.004 2.793-1.865 1.679-3.509 1.626-5.881 1.582-4.997-0.093-7.643-2.3-10.994-5.744l0.153-7.606z" fill="#FEB386"/> <path transform="scale(2.9326)" d="m246.94 839.43c0.047 1.631-0.107 3.444 0.563 4.935l15.029-3e-3 0.476 24.54c-8.091-4.163-17.231-10.682-26.008-12.91-1.065-1.799-0.533-5.94-0.539-8.079l9.782 0.155 0.697-8.638z" fill="#C8D0E2"/> <path transform="scale(2.9326)" d="m205.09 848.01c4.133-0.539 8.549-0.226 12.722-0.21l-0.153 7.606-3.92 28.909-48.664 0.126-0.193-0.642c-1.201-3.757-3.568-7.527-6.507-10.157-4.317-3.865-10.991-6.314-16.175-8.999l-14.974-8.041c-0.394-2.214 0.158-4.88 0.363-7.132l10.409-0.052c6.25-0.737 12.813-0.417 19.108-0.435l31.609-0.109 11.334-0.196c1.693-0.057 3.491 0.088 5.041-0.668z" fill="#C8D0E2"/> <path transform="scale(2.9326)" d="m538.49 776.52c4.385 1.791 8.82 3.705 13.443 4.796 11.372 2.684 23.665 2.835 35.288 2.461 10.373-0.335 21.544-1.025 31.252-5.022l4.026-1.77 0.107 12.475c0.014 1.561-0.269 3.972 0.166 5.403l-0.149 2.143-0.113 19.66c-11.863 6.535-25.629 8.202-38.974 8.467-14.389 0.392-31.757-0.726-44.731-7.417-0.455-2.27-0.266-4.826-0.278-7.145l0.071-13.147-0.334-1.2 0.226-19.704z" fill="#F6A622"/> <path transform="scale(2.9326)" d="m591.17 803.34c0.321-0.33 5.929-0.607 6.901-0.709 8.785-0.918 17.26-2.906 24.7-7.778l-0.149 2.143c-5.862 4.299-12.332 5.681-19.382 6.938-3.467 0.618-7.723 1.321-11.217 1.001l0.226-0.815-1.079-0.78z" fill="#FED04F"/> <path transform="scale(2.9326)" d="m538.27 796.22c3.439 1.047 6.595 2.647 10.094 3.618 13.582 3.765 28.809 4.291 42.813 3.508l1.079 0.78-0.226 0.815c-14.871 0.846-32.15 0.699-46.331-4.232l-0.696-0.246c-2.302-0.8-4.287-1.851-6.399-3.043l-0.334-1.2z" fill="#F8BC45"/> <path transform="scale(2.9326)" d="m592.03 804.94c3.494 0.32 7.75-0.383 11.217-1.001 7.05-1.257 13.52-2.639 19.382-6.938l-0.113 19.66c-11.863 6.535-25.629 8.202-38.974 8.467-14.389 0.392-31.757-0.726-44.731-7.417-0.455-2.27-0.266-4.826-0.278-7.145l0.071-13.147c2.112 1.192 4.097 2.243 6.399 3.043l0.696 0.246c14.181 4.931 31.46 5.078 46.331 4.232z" fill="#F6A622"/> <path transform="scale(2.9326)" d="m442.54 839.96 0.871 0.186c1.956 0.449 3.757 1.419 5.655 2.066 3.465 1.181 7 2.013 10.575 2.785 11.502 2.484 23.525 2.982 35.255 2.657 8.37-0.232 17.049-0.808 25.226-2.727 4.613-1.082 8.586-2.803 12.986-4.365l0.377 3.478c5e-3 5.187 0.926 34.653-0.405 36.925-3.035 1.692-5.992 2.847-9.394 3.589-9.875 2.155-20.29 2.568-30.372 2.766-9.276 0.181-18.6-0.105-27.814-1.216-8.224-0.992-15.856-2.369-22.909-6.947-0.707-5.013-0.419-10.159-0.368-15.209l0.211-22.876 0.106-1.112z" fill="#F6A622"/> <path transform="scale(2.9326)" d="m442.54 839.96 0.871 0.186c1.956 0.449 3.757 1.419 5.655 2.066 3.465 1.181 7 2.013 10.575 2.785 11.502 2.484 23.525 2.982 35.255 2.657 8.37-0.232 17.049-0.808 25.226-2.727 4.613-1.082 8.586-2.803 12.986-4.365l0.377 3.478-0.735-1.76c-1.674 0.531-3.158 1.519-4.772 2.206-2.605 1.108-5.418 1.85-8.177 2.473-9.979 2.254-20.67 2.331-30.861 2.282-14.894-0.071-33.478 0.034-46.506-8.169l0.106-1.112z" fill="#FED04F"/> <path transform="scale(2.9326)" d="m677.28 493.86c0.583 7.366 0.259 14.948 0.276 22.347l0.432 38.056c0.142 5.37-0.3 12.098 0.89 17.258 0.377 3.577 0.847 7.195 0.464 10.789-0.538 5.032-1.895 10.014-2.96 14.959l-7.638 31.797-13.124 51.429-4.911 17.823c-0.725 2.636-1.956 5.769-2.144 8.445-0.189 2.692 0.55 5.8 0.956 8.466l1.919 13.694 8.143 59.188 5.31 41.41c0.801 6.186 0.992 14.136 3.162 19.992 1.229 1.27 2.003 2.539 1.975 4.371l-0.059 0.627c-2.224 0.469-3.757 1.048-5.65 2.314l-41.797 0.051-0.111-4.258-0.137-13.815c0.885-5.994 0.157-13.184 0.178-19.31l0.055-2.837 0.113-19.66 0.149-2.143c-0.435-1.431-0.152-3.842-0.166-5.403l-0.107-12.475-4.026 1.77c-9.708 3.997-20.879 4.687-31.252 5.022-11.623 0.374-23.916 0.223-35.288-2.461-4.623-1.091-9.058-3.005-13.443-4.796l-0.226 19.704 0.334 1.2-0.071 13.147c0.012 2.319-0.177 4.875 0.278 7.145l-0.343 5.317 0.119 14.683-0.155 6.282-4.944 0.045-0.377-3.478c-4.4 1.562-8.373 3.283-12.986 4.365-8.177 1.919-16.856 2.495-25.226 2.727-11.73 0.325-23.753-0.173-35.255-2.657-3.575-0.772-7.11-1.604-10.575-2.785-1.898-0.647-3.699-1.617-5.655-2.066l-0.871-0.186-0.098-19.837c-0.787 1.545-0.47 3.287-0.444 4.997l0.073 9.442-5.558-0.794 0.621-159.12c-0.371-3.403-0.129-7.086-0.14-10.522-9e-3 -2.606-0.285-5.557 1e-3 -8.127 0.311-2.798 0.246-5.594-0.663-8.312l-0.24-0.688c-2.759-8.222-8.165-10.041-13.983-15.51l-0.481-0.458 214.93 0.047-0.23-103.96c8.635-1.561 14.655-7.815 20.893-13.515l20.061-19.741z" fill="#FEFEFE"/> <path transform="scale(2.9326)" d="m507.52 786.37 9.588 1.202c0.804 0.14 2.178 0.186 2.834 0.552 4.155 0.914 9.833 1.914 12.454 5.599 0.768 1.08 1.029 2.464 1.356 3.726l-2.204-0.506-0.319-0.672c-2.049-3.415-7.441-4.756-11.059-5.702-3.802-0.957-9.514-1.475-12.83-3.315l0.18-0.884z" fill="#F6A622"/> <path transform="scale(2.9326)" d="m455.62 788.14c12.422-2.484 25.406-3.167 38.053-2.824 4.529 0.123 9.428 0.087 13.854 1.046l-0.18 0.884c3.316 1.84 9.028 2.358 12.83 3.315 3.618 0.946 9.01 2.287 11.059 5.702l0.319 0.672c-1.286 1.51-3.02 2.208-4.788 3.034-10.105 4.721-21.672 4.521-32.342 6.982l-24.42-0.889c-4.692-0.382-9.407-0.573-14-1.689-4.799-1.165-9.006-3.213-13.447-5.257l-0.14 8.589c-0.265-3.666-1.431-10.75 0.496-13.749l0.2-0.343c2.646-3.599 8.387-4.474 12.506-5.473z" fill="#FED04F"/> <path transform="scale(2.9326)" d="m442.91 793.96 0.2-0.343c2.646-3.599 8.387-4.474 12.506-5.473 1.067 0.504 0.632 0.236 1.343 0.735-3.374 2.601-9.227 4.096-13.199 6.025-0.806-0.542-0.562-0.195-0.85-0.944z" fill="#F6A622"/> <path transform="scale(2.9326)" d="m531.55 796.94 2.204 0.506-0.553 6.03-0.093 37.085c-4.4 1.562-8.373 3.283-12.986 4.365-8.177 1.919-16.856 2.495-25.226 2.727-11.73 0.325-23.753-0.173-35.255-2.657-3.575-0.772-7.11-1.604-10.575-2.785-1.898-0.647-3.699-1.617-5.655-2.066l-0.871-0.186-0.098-19.837-0.029-12.412 0.14-8.589c4.441 2.044 8.648 4.092 13.447 5.257 4.593 1.116 9.308 1.307 14 1.689l24.42 0.889c10.67-2.461 22.237-2.261 32.342-6.982 1.768-0.826 3.502-1.524 4.788-3.034z" fill="#F6A622"/> <path transform="scale(2.9326)" d="m531.55 796.94 2.204 0.506-0.553 6.03-0.451-3.542c-2.59 0.902-4.854 2.667-7.492 3.645-9.329 3.455-20.996 3.576-30.838 3.377 10.67-2.461 22.237-2.261 32.342-6.982 1.768-0.826 3.502-1.524 4.788-3.034z" fill="#F8BC45"/> <path transform="scale(2.9326)" d="m538.3 730.84 0.248-0.855c1.048-2.637 4.098-4.116 6.575-5.093 8.073-3.185 17.285-4.07 25.875-4.603 14.216-0.883 31.881-1.211 45.094 4.739 2.506 1.129 4.981 2.176 5.989 4.896 0.656 2.312 0.398 4.88 0.39 7.275l-0.082 13.102 0.045 7.263 0.062 17.06 4e-3 2.361-4.026 1.77c-9.708 3.997-20.879 4.687-31.252 5.022-11.623 0.374-23.916 0.223-35.288-2.461-4.623-1.091-9.058-3.005-13.443-4.796l-0.11-1.415 0.025-3.975c-0.887-6.509-0.413-14.233-0.059-20.828l-0.047-19.462z" fill="#F6A622"/> <path transform="scale(2.9326)" d="m540.46 731.52c16.858-7.464 35.895-8.915 54.127-6.996 6.335 0.667 12.888 1.581 18.894 3.778 2.388 0.874 4.499 2.183 6.528 3.696l0.987 1.498c-0.341 0.496-0.652 0.961-1.119 1.351-2.485 2.077-7.256 3.108-10.372 3.811-16.241 3.665-34.35 3.904-50.75 1.232-5.708-0.93-15.286-2.257-18.8-7.136l0.505-1.234z" fill="#F8BC45"/> <path transform="scale(2.9326)" d="m588.92 759.45c11.091-2.343 24.266-1.207 33.467-9.157l0.045 7.263 0.062 17.06 4e-3 2.361-4.026 1.77c-9.708 3.997-20.879 4.687-31.252 5.022-11.623 0.374-23.916 0.223-35.288-2.461-4.623-1.091-9.058-3.005-13.443-4.796l-0.11-1.415 0.025-3.975c-0.887-6.509-0.413-14.233-0.059-20.828 14.525 9.991 33.679 9.268 50.575 9.156z" fill="#F6A622"/> <path transform="scale(2.9326)" d="m588.92 759.45c11.091-2.343 24.266-1.207 33.467-9.157l0.045 7.263-0.223-3.309-0.646-0.5c-9.544 5.683-23.261 7.834-34.289 7.197 1.812-0.601 3.82-0.574 5.715-0.691l-0.327-0.422-3.742-0.381z" fill="#FED04F"/> <path transform="scale(2.9326)" d="m538.35 750.3c14.525 9.991 33.679 9.268 50.575 9.156l3.742 0.381 0.327 0.422c-1.895 0.117-3.903 0.09-5.715 0.691-9.228 0.142-18.65 0.217-27.781-1.287-8.014-1.32-14.03-3.232-20.927-7.739-1e-3 6.21 0.583 13.076-0.162 19.204-0.887-6.509-0.413-14.233-0.059-20.828z" fill="#F8BC45"/> <path transform="scale(2.9326)" d="m622.5 774.62 4e-3 2.361-4.026 1.77c-9.708 3.997-20.879 4.687-31.252 5.022-11.623 0.374-23.916 0.223-35.288-2.461-4.623-1.091-9.058-3.005-13.443-4.796l-0.11-1.415c2.217 0.43 4.281 1.426 6.422 2.136 16.172 5.367 33.355 6.009 50.195 4.271 9.465-0.977 18.925-2.589 27.498-6.888z" fill="#FED04F"/> <path transform="scale(2.9326)" d="m657.22 513.61-0.228 92.136-0.04 27.011c-7e-3 4.56 0.371 9.49-0.152 13.997-0.214 1.839-1.284 3.424-2.553 4.735-1.885 1.946-3.977 2.98-6.653 3.3-6.988 0.836-14.715 0.188-21.809 0.193l-45.311-8e-3 -143.17-0.057c-0.014 6.422 0.515 13.382-0.172 19.736-0.371-3.403-0.129-7.086-0.14-10.522-9e-3 -2.606-0.285-5.557 1e-3 -8.127 0.311-2.798 0.246-5.594-0.663-8.312l-0.24-0.688c-2.759-8.222-8.165-10.041-13.983-15.51l-0.481-0.458 214.93 0.047-0.23-103.96c8.635-1.561 14.655-7.815 20.893-13.515z" fill="#4669A4"/> <path transform="scale(2.9326)" d="m312.04 470.8c1.906-1.599 4.85-3.168 7.33-3.366l-0.11 163.53 13.706-0.325c2.348-3e-3 5.215-0.275 7.513 0.193l81.148 0.198 0.481 0.458c5.818 5.469 11.224 7.288 13.983 15.51l0.24 0.688c0.909 2.718 0.974 5.514 0.663 8.312-0.286 2.57-0.01 5.521-1e-3 8.127 0.011 3.436-0.231 7.119 0.14 10.522l-0.621 159.12 0.032 18.151c4e-3 10.597 0.37 18.108-7.634 26.031-3.278 3.245-7.608 5.712-12.161 6.553-4.802 0.887-10.351 0.375-15.228 0.371l-29.037-0.045-56.268-0.053-30.217-9e-3 -2.49-0.207-0.248-0.137c-4.652-2.212-9.276-4.472-12.969-8.171-2.328-2.333-4.326-4.889-6.868-7.013l-0.416-0.339-0.476-24.54-15.029 3e-3c-0.67-1.491-0.516-3.304-0.563-4.935l-0.697 8.638-9.782-0.155-18.653-0.113c-4.173-0.016-8.589-0.329-12.722 0.21-1.55 0.756-3.348 0.611-5.041 0.668l-11.334 0.196-31.609 0.109c-6.295 0.018-12.858-0.302-19.108 0.435 0.779-4.354 2.498-10.565 1.42-14.901-1.217-0.969-2.58-0.899-4.065-1.009-2.094 0.839-5.482 0.51-7.775 0.529l-17.222 0.083 9.48-65.893 5.31-27.889c1.696-7.57 4.346-15.733 5.107-23.405 0.87-8.778 0.131-18.389-0.097-27.235l-0.161-28.209c-0.012-12.952-1.228-67.457 4.244-76.616l13.741-12.42c4.167 0.21 8.31 1.54 12.523 1.833 13.749 0.955 30.444-1.122 43.344-6.297 3.132-1.257 5.928-3.078 8.963-4.545 1.218-2.984 1.33-6.726 1.677-9.92l1.633-20.415c0.485-3.105 0.295-6.46 0.298-9.603l-0.244-24.116c4.257 4.334 8.474 8.863 13.888 11.754 4.43 2.366 8.995 3.284 13.858 1.676l0.833-0.291c11.884-4.076 22.769-11.559 33.168-18.432l34.123-23.293z" fill="#11335B"/> <path transform="scale(2.9326)" d="m172.27 665.46c-0.305-4.083 0.89-8.344 1.672-12.341l4.504-21.717c1.58-7.548 2.493-16.135 5.199-23.348 1.128 9.386 3.906 18.859 6.19 28.029l15.429 55.227 6.973 20.578c1.377 4.092 3.024 8.092 3.64 12.391 0.491 3.43 0.376 7.049 0.519 10.513l0.944 18.265 3.406 58.56 0.855 16.315c0.086 1.376-0.068 3.902 0.618 5.043l19.486-0.591c1.945 0.179 3.582-0.044 5.069 1.303l0.163 5.74-0.697 8.638-9.782-0.155-18.653-0.113c-4.173-0.016-8.589-0.329-12.722 0.21-0.18-4.488-0.22-11.061 1.49-15.256 1.427-0.547 2.963-0.724 4.463-0.981l-2.331-20.374-5.235-47.249-2.632-26.783c-0.361-4.037-0.051-9.601-1.338-13.363-1.817-5.307-4.884-10.584-7.21-15.718l-20.02-42.823z" fill="#052145"/> <path transform="scale(2.9326)" d="m135.35 833.5 19.978-85.286 5.74-24.03 7.967-43.334c1.006-5.08 1.582-10.5 3.239-15.395l20.02 42.823c2.326 5.134 5.393 10.411 7.21 15.718 1.287 3.762 0.977 9.326 1.338 13.363l2.632 26.783 5.235 47.249 2.331 20.374c-1.5 0.257-3.036 0.434-4.463 0.981-1.71 4.195-1.67 10.768-1.49 15.256-1.55 0.756-3.348 0.611-5.041 0.668l-11.334 0.196-31.609 0.109c-6.295 0.018-12.858-0.302-19.108 0.435 0.779-4.354 2.498-10.565 1.42-14.901-1.217-0.969-2.58-0.899-4.065-1.009z" fill="#FEFEFE"/> <path transform="scale(2.9326)" d="m312.04 470.8c1.906-1.599 4.85-3.168 7.33-3.366l-0.11 163.53-19.965 0.127c-11.948-0.039-21.805-0.572-30.546 9.184-2.874 3.207-5.537 7.82-6.166 12.135-0.991 6.802-0.325 14.333-0.269 21.204l0.112 36.223 0.106 134.52-15.029 3e-3c-0.67-1.491-0.516-3.304-0.563-4.935l-0.163-5.74c-1.487-1.347-3.124-1.124-5.069-1.303-0.308-8.201 0.479-16.638 0.627-24.86l1.102-61.073 0.194-17.686c0.026-3.097 0.283-6.448-0.143-9.514-0.725-5.225-2.205-10.609-3.381-15.761l-5.119-22.796-17.467-79.693c-1.898-9.641-5.049-20.291-5.621-30.096-0.144-2.462 0.466-5.048 0.906-7.464 1.218-2.984 1.33-6.726 1.677-9.92l1.633-20.415c0.485-3.105 0.295-6.46 0.298-9.603l-0.244-24.116c4.257 4.334 8.474 8.863 13.888 11.754 4.43 2.366 8.995 3.284 13.858 1.676l0.833-0.291c11.884-4.076 22.769-11.559 33.168-18.432l34.123-23.293z" fill="#FEFEFE"/> <path transform="scale(2.9326)" d="m319.26 630.97 13.706-0.325c2.348-3e-3 5.215-0.275 7.513 0.193l81.148 0.198 0.481 0.458c5.818 5.469 11.224 7.288 13.983 15.51l0.24 0.688c0.909 2.718 0.974 5.514 0.663 8.312-0.286 2.57-0.01 5.521-1e-3 8.127 0.011 3.436-0.231 7.119 0.14 10.522l-0.621 159.12 0.032 18.151c4e-3 10.597 0.37 18.108-7.634 26.031-3.278 3.245-7.608 5.712-12.161 6.553-4.802 0.887-10.351 0.375-15.228 0.371l-29.037-0.045-56.268-0.053-30.217-9e-3 -2.49-0.207-0.248-0.137c-4.652-2.212-9.276-4.472-12.969-8.171-2.328-2.333-4.326-4.889-6.868-7.013l-0.416-0.339-0.476-24.54-0.106-134.52-0.112-36.223c-0.056-6.871-0.722-14.402 0.269-21.204 0.629-4.315 3.292-8.928 6.166-12.135 8.741-9.756 18.598-9.223 30.546-9.184l19.965-0.127z" fill="#089899"/> <path transform="scale(2.9326)" d="m337.86 742.25c4.889-0.949 10.447-0.394 15.429-0.384 3.268 7e-3 7.179-0.367 10.381 0.193 1.336 0.233 2.811 1.401 3.451 2.591 1.602 2.978 1.723 21.611 0.583 25.076-0.732 2.223-1.942 3.226-3.972 4.249l-17.604 0.151c-2.263-0.013-5.249 0.317-7.409-0.161-1.612-0.357-2.852-1.149-3.736-2.557-2.574-4.105-1.471-12.521-1.409-17.431 0.03-2.401-0.197-5.591 0.583-7.871 0.697-2.038 1.875-2.861 3.703-3.856z" fill="#E2E7F0"/> <path transform="scale(2.9326)" d="m293.92 741.61 14.39 0.277c3.298 0 8.8-0.747 11.772 0.525 1.367 0.585 2.768 2.113 3.171 3.555 0.776 2.779 0.733 22.647-0.375 24.567-1.091 1.89-2.272 2.811-4.334 3.444-8.522-0.203-17.963 0.693-26.297-0.669-1.291-0.834-2.157-1.525-2.856-2.93-1.26-2.531-1.659-21.633-0.636-24.398 0.848-2.292 3.103-3.402 5.165-4.371z" fill="#F98662"/> <path transform="scale(2.9326)" d="m293.2 826.25c3.206-0.731 7.297-0.326 10.632-0.342 4.67-0.022 9.805-0.461 14.415 0.061 2.002 0.227 3.833 1.386 5.031 3 2.413 3.25 1.267 13.167 1.255 17.304-8e-3 2.564 0.279 5.642-0.191 8.144-0.441 2.344-1.659 3.779-3.595 5.059-2.95 0.991-6.614 0.611-9.729 0.619-5.385 0.016-10.904 0.243-16.274-0.051-1.805-0.099-3.451-1.284-4.548-2.686-1.362-1.742-0.799-5.748-0.792-7.858 0.017-5.648-0.522-11.946 0.2-17.516 0.345-2.667 1.443-4.217 3.596-5.734z" fill="#E2E7F0"/> <path transform="scale(2.9326)" d="m292.9 783.25c2.726-0.664 6.176-0.279 8.986-0.274l15.642 0.08c1.989 0.073 3.518 0.46 4.855 2.021 0.834 0.975 1.273 2.056 1.533 3.304 0.637 3.052 0.379 6.529 0.395 9.655 0.022 4.201 0.279 8.656-0.146 12.826-0.298 2.932-1.278 4.097-3.48 5.963-3.62 1.121-7.992 0.653-11.797 0.666-4.547 0.015-9.362 0.352-13.889 0.017-1.729-0.127-3.192-0.97-4.25-2.362-2.407-3.165-1.6-23.617-1.22-28.396 0.955-1.739 1.697-2.45 3.371-3.5z" fill="#E2E7F0"/> <path transform="scale(2.9326)" d="m381.91 741.11c5.802-0.342 11.719-0.149 17.533-0.143 2.937 3e-3 6.716-0.403 9.529 0.366 1.612 0.44 2.976 1.466 3.728 2.985 1.239 2.502 1.274 23.462 0.371 25.735-0.803 2.024-2.128 3.133-4.039 4.038l-26.691-0.143c-1.552-0.193-3.146-1.294-4.001-2.588-0.677-1.025-1.103-2.295-1.245-3.51-0.592-5.087-0.299-10.705-0.356-15.846-0.021-1.839-0.397-4.971 0.226-6.661 0.84-2.278 2.86-3.309 4.945-4.233z" fill="#E2E7F0"/> <path transform="scale(2.9326)" d="m337.07 826.25c4.309-1.122 10.445-0.391 15.029-0.384 3.673 5e-3 8.308-0.473 11.899 0.241 1.372 0.272 2.601 1.415 3.305 2.58 1.438 2.381 1.227 5.556 1.241 8.226l4e-3 12.135c-9e-3 1.996 0.376 5.255-0.216 7.11-0.633 1.987-1.862 2.715-3.61 3.592-3.066 0.608-6.504 0.346-9.633 0.362l-15.15 0.01c-2.057-0.037-3.601 0.115-5.072-1.547-0.789-0.892-1.462-2.197-1.699-3.366-0.679-3.347-0.216-7.53-0.214-10.959 3e-3 -4.159-0.478-8.903 0.126-12.998 0.341-2.308 2.165-3.799 3.99-5.002z" fill="#E2E7F0"/> <path transform="scale(2.9326)" d="m380.49 826.75c2.864-0.721 6.969-0.227 9.963-0.232 5.583-8e-3 11.605-0.457 17.145 0.093 1.683 0.167 3.205 1.045 4.206 2.419 1.432 1.966 1.078 5.339 1.1 7.658l0.026 12.727c-0.014 2.191 0.114 4.876-0.544 6.978-0.587 1.879-1.411 2.701-3.132 3.573-6.342 0.451-12.932 0.137-19.296 0.118-2.694-7e-3 -6.63 0.468-9.204-0.235-1.083-0.296-2.118-1.287-2.683-2.226-1.894-3.144-2.287-23.434-1.143-27.303 0.576-1.949 1.814-2.742 3.562-3.57z" fill="#E2E7F0"/> <path transform="scale(2.9326)" d="m381.07 783.75c3.936-0.64 8.655-0.162 12.668-0.156 4.612 8e-3 10.069-0.524 14.584 0.289 1.77 0.319 3.215 1.167 4.189 2.704 1.345 2.123 1.75 23.406 0.822 26.069-0.731 2.094-2.143 2.877-4.027 3.845-6.58 0.535-13.438 0.193-20.048 0.159-2.306-0.012-6.286 0.421-8.416-0.316-1.582-0.548-3.208-1.988-3.77-3.594-0.96-2.746-1.118-23.393 0.021-25.756 0.839-1.741 2.192-2.69 3.977-3.244z" fill="#E2E7F0"/> <path transform="scale(2.9326)" d="m336.74 783.25c0.596-0.136 1.146-0.264 1.759-0.3 5.277-0.311 10.738-0.054 16.032-0.037 3.009 0.01 6.656-0.358 9.567 0.337 1.039 0.248 1.964 0.912 2.684 1.684 2.312 2.478 1.661 6.677 1.655 9.816l-0.055 18.346c-1.062 1.67-2.034 2.727-3.633 3.894-2.95 0.924-6.729 0.532-9.838 0.544-5.064 0.018-10.38 0.325-15.417-0.085-2.117-0.172-4.141-0.907-5.437-2.699-2.375-3.281-1.179-14.963-1.144-19.24 0.019-2.398-0.258-5.386 0.274-7.706 0.502-2.192 1.748-3.348 3.553-4.554z" fill="#E2E7F0"/> <path transform="scale(2.9326)" d="m288.21 658.66 84.874 0.335 25.234-0.029c3.926-6e-3 8.572-0.484 12.432 0.173 1.807 0.308 3.745 1.792 4.62 3.396 1.887 3.458 0.86 28.539 0.853 34.262-5e-3 3.332 0.613 8.381-0.444 11.511-0.768 2.275-2.901 3.278-4.89 4.3-8.11 0.56-16.452 0.22-24.587 0.234l-43.802 0.056-39.102 0.048-10.778-0.015c-2.039-7e-3 -4.527 0.229-6.4-0.735-1.424-0.734-2.388-2.073-2.747-3.609-0.743-3.176-0.232-7.674-0.252-10.959l-0.106-25.131c-0.025-3.049-0.863-8.478 0.755-11.028 1.117-1.76 2.376-2.335 4.34-2.809z" fill="#E2E7F0"/> </svg>